<?xml version="1.0" standalone="no"?>
<!DOCTYPE svg PUBLIC "-//W3C//DTD SVG 20010904//EN"
 "http://www.w3.org/TR/2001/REC-SVG-20010904/DTD/svg10.dtd">
<svg version="1.0" xmlns="http://www.w3.org/2000/svg"
 width="1077.000000pt" height="1280.000000pt" viewBox="0 0 1077.000000 1280.000000"
 preserveAspectRatio="xMidYMid meet">
<metadata>
Created by potrace 1.15, written by Peter Selinger 2001-2017
</metadata>
<g transform="translate(0.000000,1280.000000) scale(0.100000,-0.100000)"
fill="#000000" stroke="none">
<path d="M4460 12787 c0 -22 -30 -41 -129 -82 -110 -46 -132 -70 -211 -232
-52 -107 -70 -130 -70 -89 0 59 111 297 149 320 6 4 11 14 11 22 0 14 -13 14
-72 -3 -10 -2 -50 -48 -90 -101 -58 -76 -74 -91 -76 -74 -2 11 2 30 7 41 16
28 14 38 -8 44 -27 7 -30 3 -95 -101 -53 -84 -60 -92 -75 -78 -14 12 -18 12
-29 0 -16 -18 -48 -10 -80 20 l-24 21 4 -42 c2 -24 -1 -41 -7 -40 -9 2 -10 5
-13 40 -1 9 -6 17 -11 17 -24 0 -175 -272 -187 -337 -10 -54 41 -146 122 -222
57 -53 65 -64 53 -76 -30 -29 -274 -187 -291 -188 -14 -1 -18 -10 -18 -37 -1
-62 -50 -124 -156 -198 -18 -13 -49 -56 -77 -109 -53 -99 -82 -123 -200 -168
-54 -20 -85 -25 -160 -25 l-93 0 -27 -55 c-41 -84 -36 -100 22 -70 44 22 55 3
40 -72 -12 -56 -11 -62 16 -121 16 -35 39 -72 53 -83 34 -26 20 -36 -31 -20
-64 19 -107 25 -107 13 0 -15 77 -78 137 -112 29 -17 53 -35 53 -41 0 -7 -15
-28 -33 -48 -41 -45 -132 -192 -203 -326 -49 -93 -91 -198 -114 -286 -5 -19
-23 -67 -40 -106 -49 -117 -60 -174 -60 -323 0 -160 -14 -232 -68 -360 -35
-83 -44 -123 -73 -310 -30 -199 -33 -233 -32 -455 0 -270 7 -323 74 -550 81
-280 79 -275 174 -370 52 -52 115 -158 102 -171 -11 -11 -44 24 -99 102 -70
103 -160 155 -288 170 -52 6 -64 4 -102 -19 -24 -14 -79 -63 -122 -107 l-80
-82 -4 -163 c-4 -137 -2 -168 12 -195 9 -18 16 -40 16 -49 1 -41 154 -291 214
-351 l46 -44 0 -171 c0 -235 11 -269 127 -402 120 -136 125 -149 129 -352 2
-147 6 -176 29 -250 23 -71 34 -91 74 -130 59 -57 158 -116 228 -137 79 -23
83 -33 83 -212 0 -119 7 -201 30 -360 42 -286 87 -547 115 -674 13 -59 27
-129 31 -157 l6 -50 -98 -30 c-55 -17 -162 -45 -240 -61 -77 -16 -208 -50
-290 -76 -236 -74 -268 -83 -469 -124 -104 -22 -248 -58 -320 -81 -71 -23
-166 -50 -210 -62 -198 -50 -261 -69 -372 -116 -65 -27 -179 -68 -253 -90
-198 -61 -242 -77 -382 -142 -70 -32 -169 -70 -220 -85 -51 -15 -96 -28 -101
-31 -11 -7 36 -89 103 -179 120 -160 656 -727 811 -859 169 -142 620 -474 749
-551 25 -15 68 -42 95 -61 28 -18 54 -33 59 -33 4 0 25 -13 45 -29 20 -15 61
-41 91 -56 30 -15 101 -55 158 -87 57 -33 128 -71 159 -84 30 -14 69 -35 87
-48 39 -30 120 -67 356 -163 101 -41 205 -85 230 -98 26 -13 75 -31 111 -40
35 -9 106 -32 156 -51 187 -69 509 -159 714 -199 68 -13 137 -28 152 -34 79
-30 491 -91 747 -110 378 -29 490 -32 870 -22 357 10 571 26 795 60 459 70
560 91 875 184 102 30 210 60 240 67 30 7 67 19 83 27 15 7 46 18 70 22 104
22 614 232 727 300 29 17 163 74 205 86 35 11 216 109 250 135 6 4 27 17 48
29 21 12 111 75 200 139 89 65 288 202 442 304 154 103 325 223 380 268 55 45
118 95 139 111 106 79 617 593 615 617 0 11 -229 167 -287 196 -29 15 -85 38
-125 52 -65 23 -294 131 -357 167 -51 30 -128 66 -215 102 -145 59 -242 105
-380 181 -71 39 -169 92 -217 118 -47 25 -129 74 -181 109 -52 34 -110 71
-128 82 -117 70 -317 245 -368 321 -16 25 -42 82 -56 125 -51 151 -62 267 -44
439 7 69 14 172 14 230 0 88 6 123 32 215 18 61 37 146 43 190 18 150 46 203
98 190 15 -3 66 -9 113 -12 85 -5 86 -5 122 26 19 18 57 69 83 114 26 45 64
107 84 137 81 120 106 190 126 354 16 131 25 153 78 185 49 31 243 277 271
344 7 18 16 57 20 87 4 30 13 80 20 110 7 30 16 89 20 130 10 115 24 169 54
203 15 18 42 56 60 85 17 30 36 59 41 65 48 59 60 76 60 84 0 5 14 22 31 39
58 54 99 163 99 261 0 127 -78 232 -228 305 -84 41 -90 42 -187 43 l-100 0
-109 -52 c-60 -29 -113 -53 -119 -53 -12 0 -2 73 24 170 13 46 26 147 35 260
19 266 42 457 61 520 19 65 21 395 3 520 -23 162 -23 162 -9 171 11 6 11 11 1
21 -9 9 -10 54 -6 182 6 164 5 177 -26 331 -43 221 -74 339 -126 485 -25 69
-52 145 -61 170 -20 56 -62 130 -74 130 -5 0 -9 6 -9 14 0 7 -25 41 -55 75
-30 34 -55 66 -55 72 0 6 -29 39 -65 74 -81 81 -83 100 -19 175 57 67 164 217
164 230 0 28 -38 4 -169 -107 -34 -29 -70 -53 -80 -53 -9 0 -22 -5 -29 -12 -9
-9 -13 -8 -17 4 -4 9 14 60 40 114 68 142 69 144 44 144 -11 0 -30 -11 -43
-25 -13 -14 -28 -25 -35 -25 -18 0 -12 60 14 143 32 101 32 111 -1 103 l-26
-7 4 122 c2 91 0 123 -9 126 -7 3 -13 0 -13 -5 0 -13 -88 -146 -100 -150 -16
-6 -39 30 -44 71 -3 23 -8 62 -11 87 -3 25 -16 61 -28 81 -38 63 -99 139 -118
150 -11 5 -19 17 -19 27 0 23 -30 70 -70 110 -47 48 -69 60 -134 77 -31 8 -83
32 -114 54 -31 21 -72 46 -90 55 -32 16 -35 16 -60 -1 -15 -9 -31 -16 -37 -14
-5 2 -28 8 -49 13 -26 6 -59 28 -98 63 -141 131 -240 180 -417 205 -70 10
-155 28 -189 39 -34 12 -84 21 -111 21 -27 0 -51 5 -53 11 -3 8 -34 8 -110 1
-93 -8 -112 -13 -143 -36 -19 -15 -35 -31 -35 -36 0 -6 16 -17 36 -25 34 -14
36 -17 30 -47 -12 -59 -7 -60 -201 12 -33 13 -91 25 -128 28 -65 5 -70 3 -121
-32 -85 -59 -99 -53 -262 106 l-101 99 -65 -63 c-78 -75 -98 -112 -106 -190
l-5 -59 52 -49 c29 -27 61 -52 72 -55 54 -17 -12 -50 -85 -41 -115 13 -237
104 -323 241 l-36 57 6 101 c7 110 -11 203 -40 214 -23 9 -117 -41 -169 -89
-69 -64 -88 -107 -88 -203 0 -59 7 -96 23 -140 30 -77 39 -155 18 -155 -28 0
-53 80 -77 255 -14 104 -18 115 -46 125 -21 8 -37 3 -102 -34 -65 -37 -82 -52
-110 -100 -38 -64 -66 -74 -77 -27 -8 38 10 170 30 218 8 20 14 38 11 40 -2 2
-20 -4 -40 -13 -19 -10 -38 -15 -41 -12 -3 2 2 26 12 53 15 46 15 49 -2 62
-11 7 -44 13 -76 13 -38 0 -61 5 -69 15 -15 19 -30 19 -30 2z m-154 -260 c-3
-12 -17 -37 -31 -56 l-25 -35 0 33 c0 36 52 121 58 95 2 -9 1 -25 -2 -37z
m-516 -141 c0 -14 -4 -28 -10 -31 -6 -4 -10 7 -10 24 0 17 5 31 10 31 6 0 10
-11 10 -24z m3115 -76 c68 -12 153 -38 160 -50 3 -6 16 -10 27 -10 21 0 115
-57 135 -82 6 -7 15 -26 20 -43 6 -19 16 -30 29 -30 28 0 146 -241 179 -365
23 -86 23 -96 9 -107 -12 -9 -13 -16 -5 -32 18 -32 13 -136 -9 -198 -42 -120
-53 -101 -61 100 -11 270 -73 489 -164 577 -33 32 -42 33 -76 9 -13 -10 -26
-2 -77 49 -53 53 -71 64 -134 83 -83 25 -152 57 -188 88 l-25 22 32 -6 c18 -4
40 -2 50 4 10 6 25 8 33 5 8 -3 38 -9 65 -14z m-3139 -56 c5 -37 4 -38 -10
-20 -18 22 -23 87 -6 70 6 -6 13 -28 16 -50z m924 40 c0 -8 -4 -12 -10 -9 -5
3 -10 10 -10 16 0 5 5 9 10 9 6 0 10 -7 10 -16z m57 -71 c9 -14 11 -23 4 -27
-6 -4 -17 7 -26 25 -19 36 -1 37 22 2z m-975 -57 c19 -24 74 -183 66 -192 -3
-3 -22 2 -42 10 -28 12 -42 26 -58 63 -23 52 -34 122 -24 149 5 14 9 14 24 3
9 -7 25 -22 34 -33z m1568 -46 c0 -5 -4 -10 -10 -10 -5 0 -10 5 -10 10 0 6 5
10 10 10 6 0 10 -4 10 -10z m-459 -28 c24 -16 50 -36 58 -45 12 -15 11 -17 -4
-17 -26 0 -103 47 -115 70 -16 29 7 26 61 -8z m1206 -7 c3 -9 3 -18 1 -21 -7
-7 -58 17 -58 28 0 15 50 8 57 -7z m-690 -21 c-9 -9 -28 6 -21 18 4 6 10 6 17
-1 6 -6 8 -13 4 -17z m-953 -45 c-3 -5 -10 -7 -15 -3 -5 3 -7 10 -3 15 3 5 10
7 15 3 5 -3 7 -10 3 -15z m1851 12 c3 -5 1 -12 -5 -16 -5 -3 -10 1 -10 9 0 18
6 21 15 7z m-1230 -41 c35 -17 70 -28 78 -25 8 4 27 -4 43 -17 16 -13 41 -29
57 -36 15 -6 27 -16 27 -22 0 -5 7 -10 16 -10 9 0 40 -7 70 -16 45 -13 60 -24
98 -71 24 -31 56 -87 71 -125 19 -48 35 -73 51 -80 19 -9 24 -19 24 -49 0 -20
-4 -39 -9 -41 -5 -1 0 -28 10 -58 20 -61 25 -167 9 -202 -6 -13 -14 -57 -20
-98 -14 -112 -27 -180 -44 -225 -8 -22 -15 -51 -16 -65 0 -14 -5 -32 -10 -40
-9 -13 -12 -12 -26 5 -18 24 -12 70 16 124 39 77 51 144 50 303 0 135 -3 167
-29 271 -37 151 -71 204 -174 270 -40 25 -98 55 -129 67 -31 11 -61 27 -67 34
-7 8 -24 17 -38 21 -15 3 -44 21 -65 38 -20 18 -50 42 -65 54 -42 34 -5 30 72
-7z m2676 -94 c13 -6 30 -25 38 -41 17 -36 26 -114 17 -151 l-7 -28 -17 27
c-10 14 -34 42 -55 62 -20 20 -37 42 -37 50 0 25 -30 17 -59 -16 l-29 -31 -21
56 c-12 31 -21 61 -21 67 0 5 15 19 33 29 19 11 40 32 48 46 l14 26 36 -42
c20 -23 47 -47 60 -54z m-1276 18 c10 -19 36 -44 58 -57 22 -12 48 -37 57 -55
10 -18 29 -43 43 -56 26 -24 61 -109 79 -190 13 -62 4 -255 -16 -341 l-14 -60
-1 67 c-1 37 4 99 11 137 9 52 9 76 1 93 -6 13 -14 36 -18 51 -12 57 -61 41
-74 -24 -8 -40 -22 -40 -36 1 -15 45 -31 57 -55 42 -32 -20 -48 -14 -90 29
-36 37 -43 41 -77 36 -54 -7 -143 -40 -153 -57 -6 -8 -10 -26 -10 -39 l0 -24
-24 23 c-28 26 -52 21 -65 -12 -4 -13 -14 -81 -20 -153 -22 -231 -35 -243 -45
-39 -10 206 -31 272 -83 262 -16 -3 -18 -14 -16 -86 2 -110 -20 -108 -43 3 -7
30 -14 41 -31 43 -13 2 -25 -4 -31 -15 -11 -19 -27 -124 -38 -238 -12 -128
-28 -115 -59 48 -8 43 -28 118 -45 167 -39 114 -39 130 -1 130 22 0 30 6 35
24 3 14 3 32 0 40 -3 9 -2 16 2 16 5 0 17 -19 26 -42 18 -41 18 -41 39 -22 16
14 37 19 91 19 65 1 71 -1 81 -23 11 -23 14 -24 81 -17 39 4 74 9 78 11 5 3 8
20 8 39 0 34 14 54 25 35 18 -29 72 -2 89 45 7 18 9 16 26 -15 11 -19 19 -43
20 -52 0 -18 5 -20 97 -38 129 -26 148 2 102 145 -35 112 -51 147 -80 176 -30
30 -23 39 19 22 25 -9 45 -27 57 -49z m-1502 -64 c14 0 30 -7 37 -15 7 -8 17
-15 23 -15 5 0 52 -19 104 -41 61 -27 102 -52 115 -70 11 -15 30 -30 42 -33
12 -3 33 -27 49 -55 15 -28 32 -53 37 -56 17 -10 62 -120 73 -180 14 -71 15
-312 1 -325 -5 -5 -19 -1 -33 11 -22 18 -25 30 -31 122 -5 74 -13 113 -28 143
-21 40 -89 104 -111 104 -6 0 -11 -17 -11 -39 0 -51 -15 -60 -35 -21 -21 40
-68 65 -96 49 -18 -9 -25 -7 -43 14 -11 14 -36 28 -55 31 l-33 6 7 -36 c7 -40
6 -40 -52 4 -47 35 -67 24 -59 -31 23 -144 19 -155 -37 -92 -35 40 -126 95
-157 95 -34 0 -27 -54 11 -82 32 -24 59 -66 59 -93 0 -24 -14 -18 -66 25 -54
45 -176 110 -206 110 -25 0 -34 -26 -21 -61 6 -16 8 -31 4 -34 -10 -6 -102 56
-112 75 -29 60 -41 102 -35 125 l6 25 43 -22 c70 -36 76 -38 106 -38 59 0 77
25 49 70 -7 10 -9 23 -4 27 4 4 55 7 113 5 86 -2 109 0 124 14 12 11 27 14 47
9 18 -3 33 -2 37 4 3 6 22 11 42 11 20 0 63 5 97 11 58 11 64 10 116 -16 30
-15 63 -34 72 -42 15 -13 18 -12 28 8 7 12 10 37 7 56 -3 18 -1 47 5 64 17 50
-1 64 -152 110 -41 13 -76 27 -78 31 -2 5 -9 8 -15 8 -13 1 -67 45 -67 55 0 3
13 -1 30 -10 16 -8 40 -15 53 -15z m-803 -469 c7 -14 7 -22 0 -26 -13 -8 -40
13 -40 31 0 21 28 17 40 -5z m-63 -27 c-9 -9 -28 6 -21 18 4 6 10 6 17 -1 6
-6 8 -13 4 -17z m1801 -85 c4 -109 -17 -96 -25 16 -5 64 -4 77 8 73 10 -3 15
-27 17 -89z m1502 7 c0 -17 -14 -29 -23 -20 -8 8 3 34 14 34 5 0 9 -6 9 -14z
m630 -46 c9 -6 17 -5 21 1 7 11 79 2 79 -11 0 -13 -34 -37 -62 -44 -16 -3 -34
-18 -42 -34 -8 -15 -24 -36 -36 -47 -32 -29 -57 -82 -69 -149 -6 -33 -13 -62
-16 -64 -10 -11 -25 15 -54 95 l-30 80 29 22 c17 12 33 34 36 49 21 85 91 135
144 102z m-4570 -69 c0 -10 -67 -72 -105 -97 -14 -9 -33 -30 -41 -45 -16 -32
-44 -39 -44 -11 0 23 17 45 57 74 17 13 50 38 74 56 43 33 59 39 59 23z m4197
-115 c-4 -9 -13 -16 -22 -16 -18 0 -19 4 -3 30 14 22 34 10 25 -14z m-241 -6
l27 -11 -22 -23 c-11 -12 -18 -26 -14 -29 11 -12 21 -8 25 11 3 9 10 -9 18
-41 10 -42 10 -61 2 -69 -8 -8 -7 -20 4 -47 9 -20 29 -99 45 -176 15 -77 40
-193 54 -258 30 -138 32 -226 8 -268 -16 -26 -16 -29 0 -47 9 -10 17 -26 17
-35 0 -9 4 -18 9 -21 39 -24 58 -810 22 -900 -6 -16 -13 -27 -16 -25 -2 3 -9
108 -15 234 -12 249 -23 379 -45 525 -8 52 -19 160 -25 240 -7 80 -25 210 -41
290 -15 80 -42 226 -59 325 -17 99 -39 213 -50 253 -11 40 -20 74 -20 77 0 9
48 5 76 -5z m344 -106 c0 -39 -13 -50 -34 -28 -17 16 -21 59 -9 90 6 15 8 15
25 -6 10 -12 18 -37 18 -56z m-3430 35 c0 -11 -4 -17 -10 -14 -5 3 -10 13 -10
21 0 8 5 14 10 14 6 0 10 -9 10 -21z m-1090 -49 c-6 -11 -19 -24 -30 -30 -29
-15 -27 14 2 34 30 22 41 20 28 -4z m570 -37 c0 -20 -3 -24 -11 -16 -7 7 -9
19 -6 27 10 24 17 19 17 -11z m-292 -48 l33 -7 -53 -34 c-29 -18 -58 -34 -64
-34 -6 0 -41 -16 -77 -35 -102 -54 -105 -15 -7 79 46 44 65 56 80 51 13 -4 20
-2 20 6 0 8 5 7 18 -3 9 -9 32 -19 50 -23z m3720 3 c7 -7 12 -26 12 -42 0 -17
9 -67 19 -111 10 -44 22 -109 26 -145 3 -36 11 -81 16 -100 16 -55 60 -414 79
-640 13 -155 19 -664 8 -676 -5 -4 -11 -4 -14 -1 -4 4 -13 132 -20 284 -8 153
-20 335 -29 405 -8 70 -15 147 -15 170 0 24 -16 136 -34 248 -19 113 -42 270
-51 349 -9 79 -21 154 -26 168 -5 13 -9 39 -9 57 0 45 14 58 38 34z m-3468
-43 c0 -19 -4 -35 -10 -35 -11 0 -14 53 -3 63 11 12 13 8 13 -28z m3612 -246
c26 -123 56 -294 68 -379 11 -85 27 -207 36 -270 17 -122 26 -681 12 -696 -16
-15 -22 10 -29 129 -4 67 -13 205 -19 307 -6 102 -20 257 -31 345 -11 88 -22
198 -24 245 -2 47 -19 167 -39 266 -47 245 -53 288 -35 282 9 -3 30 -79 61
-229z m-3668 205 c11 -29 6 -44 -14 -44 -11 0 -20 6 -20 14 0 21 11 46 20 46
4 0 11 -7 14 -16z m676 -7 c0 -38 -41 -147 -55 -147 -27 0 -24 44 8 107 33 66
47 78 47 40z m96 -49 c-7 -24 -21 -70 -30 -103 -10 -33 -22 -73 -28 -90 -12
-35 -21 -86 -38 -205 -19 -138 -49 -276 -71 -326 -19 -45 -19 -48 -3 -57 15
-8 15 -12 3 -21 -8 -6 -19 -20 -25 -31 -6 -11 -20 -20 -30 -20 -17 0 -19 8
-19 62 0 108 -27 97 -56 -23 -21 -88 -31 -104 -57 -88 -13 9 -17 25 -16 65 1
68 11 119 76 384 16 66 38 154 47 195 10 41 20 82 24 90 3 8 8 27 11 43 7 30
20 34 42 13 18 -19 19 -132 1 -166 -8 -14 -21 -55 -31 -90 -14 -53 -15 -70 -6
-95 9 -21 14 -26 18 -15 3 8 13 21 24 28 12 9 18 26 18 55 0 23 7 56 16 72 8
17 19 48 24 70 4 22 13 54 18 70 6 17 16 50 22 75 32 125 43 150 65 150 12 0
12 -7 1 -42z m2665 22 c12 -25 49 -251 49 -303 0 -27 5 -57 10 -67 6 -11 22
-111 36 -222 13 -112 27 -210 29 -218 9 -34 37 -656 31 -703 -8 -60 -19 -86
-31 -67 -4 6 -11 132 -16 278 -10 335 -17 440 -34 522 -26 129 -57 356 -52
387 3 18 1 35 -4 38 -5 4 -9 23 -9 43 0 21 -9 64 -21 97 -11 33 -23 98 -26
148 -6 82 -5 89 12 86 10 -2 21 -11 26 -19z m-2484 -45 c-9 -20 -17 -47 -17
-61 0 -23 -9 -67 -41 -199 -5 -22 -14 -71 -19 -110 -5 -38 -13 -83 -19 -98 -6
-16 -11 -43 -11 -61 0 -19 -7 -53 -15 -76 -8 -23 -15 -68 -15 -100 0 -65 -28
-116 -50 -93 -14 13 4 172 27 237 7 21 13 49 13 63 0 13 9 36 21 52 17 23 18
31 8 54 -9 20 -9 36 1 74 7 26 16 75 20 108 4 33 12 74 18 90 6 17 16 48 21
70 16 59 50 110 64 96 8 -8 6 -20 -6 -46z m-1397 10 c0 -9 -8 -18 -17 -22 -10
-3 -28 -17 -40 -31 -32 -38 -36 -23 -7 26 25 42 64 58 64 27z m400 11 c0 -3
-4 -8 -10 -11 -5 -3 -10 -1 -10 4 0 6 5 11 10 11 6 0 10 -2 10 -4z m1200 -16
c13 -9 12 -12 -4 -25 -16 -12 -21 -33 -27 -124 -4 -60 -10 -115 -14 -120 -12
-20 -26 -11 -41 24 -19 47 -18 71 6 95 15 15 20 33 20 71 0 76 21 105 60 79z
m78 -57 c-3 -21 -17 -94 -31 -163 -14 -69 -33 -192 -42 -275 -17 -170 -40
-262 -69 -271 -10 -3 -22 -2 -26 3 -5 4 5 91 21 193 35 226 36 240 9 240 -17
0 -20 -7 -20 -52 0 -66 -9 -98 -25 -98 -10 0 -11 -8 -3 -32 15 -51 -12 -252
-35 -256 -34 -7 -40 36 -22 163 9 65 23 136 30 159 8 23 15 57 15 77 0 52 20
74 64 71 32 -3 36 -1 36 20 0 29 32 146 61 223 24 64 44 63 37 -2z m1985 31
c-4 -12 0 -15 18 -12 22 3 24 -1 31 -57 4 -33 15 -80 23 -105 40 -123 86 -568
59 -577 -30 -10 -53 76 -78 297 -9 74 -27 198 -41 274 -26 148 -31 211 -15
201 5 -3 6 -13 3 -21z m-2197 -21 c-11 -11 -19 6 -11 24 8 17 8 17 12 0 3 -10
2 -21 -1 -24z m-512 5 c10 -40 7 -68 -9 -68 -8 0 -16 -10 -19 -22 -2 -13 -9
-50 -16 -83 -7 -33 -16 -87 -20 -120 -4 -33 -12 -73 -19 -90 -7 -16 -10 -39
-7 -51 4 -13 1 -35 -5 -51 -6 -15 -17 -59 -25 -98 -8 -38 -19 -88 -24 -110 -5
-22 -9 -57 -10 -77 0 -20 -7 -49 -14 -65 -8 -15 -17 -36 -20 -45 -3 -10 -15
-18 -26 -18 -11 0 -20 -4 -20 -10 0 -5 -4 -10 -10 -10 -24 0 -3 226 22 241 6
4 14 40 17 81 4 40 10 78 14 85 4 6 16 55 27 109 12 59 26 102 35 107 8 4 15
19 15 33 0 33 17 64 35 64 12 0 14 11 9 59 -6 52 -4 60 13 70 13 6 23 25 27
51 7 44 20 52 30 18z m2860 -10 c14 -37 61 -367 53 -375 -11 -11 -27 9 -37 46
-14 52 -50 288 -50 329 0 17 5 32 11 32 5 0 16 -15 23 -32z m-2524 -9 c-10
-17 -30 -27 -30 -13 0 15 22 44 31 39 5 -4 5 -13 -1 -26z m2322 -61 c3 -37 9
-71 12 -76 3 -5 10 -52 16 -103 6 -52 17 -126 25 -165 8 -38 19 -112 25 -163
9 -80 8 -97 -5 -117 -18 -28 -51 -32 -59 -6 -3 9 -10 62 -16 117 -6 55 -22
180 -36 278 -29 209 -31 256 -13 285 25 41 43 23 51 -50z m-2152 -7 c0 -16 -7
-48 -15 -72 -24 -67 -50 -259 -61 -449 -6 -101 -11 -117 -36 -131 -18 -10 -24
-8 -35 7 -19 25 -17 113 2 120 11 5 15 22 15 64 0 68 23 199 41 232 7 13 16
46 20 73 20 148 38 203 60 189 5 -3 9 -18 9 -33z m3737 24 c14 -10 24 -12 28
-5 9 14 45 12 50 -2 2 -7 6 -30 10 -50 l6 -38 -38 0 c-55 0 -66 -11 -61 -59 2
-22 2 -41 0 -41 -2 0 -17 10 -34 21 -25 18 -32 19 -39 8 -5 -8 -9 -22 -9 -31
0 -9 -4 -19 -10 -23 -5 -3 -1 -14 9 -24 20 -20 58 -147 47 -158 -9 -9 -32 25
-47 69 -7 21 -32 61 -56 89 -30 36 -43 60 -43 81 0 30 0 31 20 13 20 -18 20
-17 20 9 0 34 26 96 39 96 6 0 11 11 11 24 0 37 57 49 97 21z m-3937 -47 c-1
-42 -46 -248 -57 -259 -8 -8 -9 -16 -1 -29 12 -18 -19 -211 -49 -305 -9 -27
-18 -57 -20 -65 -4 -13 -5 -13 -14 0 -20 31 22 320 62 424 10 28 19 66 19 85
0 43 38 171 50 171 6 0 10 -10 10 -22z m1870 -29 c0 -22 4 -82 10 -132 5 -51
14 -164 20 -252 6 -88 13 -178 17 -199 6 -38 6 -39 -20 -32 -16 4 -27 2 -27
-4 0 -14 -27 -13 -36 2 -12 19 -29 328 -27 483 2 130 4 141 24 158 32 26 39
21 39 -24z m-926 -20 c-9 -249 -26 -533 -34 -553 -11 -29 -35 -34 -44 -10 -5
13 -9 14 -20 5 -10 -9 -15 -8 -20 4 -3 8 -3 21 -1 28 2 6 9 95 15 197 9 161
18 236 36 328 2 12 11 22 20 22 8 0 17 7 21 15 11 31 28 8 27 -36z m1306 2 c0
-36 28 -250 46 -346 16 -88 19 -225 5 -225 -23 0 -34 39 -43 157 -5 70 -11
129 -13 132 -2 2 0 12 6 23 7 14 6 22 -6 34 -9 10 -15 34 -15 67 0 29 -5 83
-10 120 -6 38 -7 73 -4 78 10 17 34 -11 34 -40z m-2902 -39 c-6 -39 -17 -71
-29 -83 -12 -12 -19 -33 -19 -55 0 -19 -9 -56 -19 -82 -11 -26 -23 -56 -27
-67 -7 -18 -8 -17 -12 8 -2 15 8 67 22 115 14 48 30 105 35 127 10 39 49 111
55 104 2 -2 -1 -32 -6 -67z m2824 -75 c3 -80 1 -116 -6 -114 -6 2 -14 21 -18
43 -9 51 -10 199 -1 208 14 14 21 -22 25 -137z m-94 121 c15 -19 31 -108 42
-233 5 -60 15 -159 21 -220 11 -107 11 -109 -11 -127 -31 -25 -59 -23 -64 5
-7 36 -45 307 -52 372 -14 126 -23 93 -16 -60 12 -269 10 -349 -9 -353 -25 -5
-28 31 -34 336 l-6 277 20 -35 c11 -19 20 -30 21 -25 0 6 9 25 20 43 20 33 50
42 68 20z m-1058 -7 c0 -6 -4 -13 -10 -16 -5 -3 -10 1 -10 9 0 9 5 16 10 16 6
0 10 -4 10 -9z m-2537 -13 c15 -7 27 -16 27 -20 0 -11 -53 -88 -62 -88 -13 0
-21 48 -14 85 8 39 11 40 49 23z m2333 -105 c-9 -153 -25 -357 -32 -411 -8
-54 -29 -53 -59 1 l-21 37 -10 -37 c-13 -51 -30 -52 -45 -3 -10 33 -10 72 -1
183 6 77 16 145 21 150 17 17 34 -66 34 -165 1 -54 4 -98 7 -98 16 0 30 52 34
130 7 147 45 330 68 330 7 0 9 -37 4 -117z m-210 35 c-9 -12 -16 -33 -16 -46
0 -17 -5 -22 -17 -20 -26 5 -18 47 15 81 30 31 43 20 18 -15z m-1072 11 c-3
-5 -10 -7 -15 -3 -5 3 -7 10 -3 15 3 5 10 7 15 3 5 -3 7 -10 3 -15z m1686 17
c0 -3 -4 -8 -10 -11 -5 -3 -10 -1 -10 4 0 6 5 11 10 11 6 0 10 -2 10 -4z
m-720 -38 c0 -7 -4 -19 -9 -27 -11 -17 -23 1 -15 23 7 19 24 21 24 4z m1206
-25 c-10 -10 -19 5 -10 18 6 11 8 11 12 0 2 -7 1 -15 -2 -18z m-687 -78 c7
-44 9 -355 2 -372 -1 -1 -14 10 -30 25 l-29 27 13 200 c7 110 13 202 14 205 4
14 20 -32 30 -85z m-2609 50 c0 -30 -52 -91 -68 -81 -15 9 -16 36 -2 37 6 1
16 2 23 3 6 0 13 16 15 34 4 38 32 45 32 7z m2690 15 c0 -5 -2 -10 -4 -10 -3
0 -8 5 -11 10 -3 6 -1 10 4 10 6 0 11 -4 11 -10z m310 -10 c19 -19 20 -33 20
-230 l0 -210 -40 0 -40 0 0 214 c0 118 3 221 6 230 8 22 30 20 54 -4z m-193
-17 c4 -16 8 -54 8 -85 0 -44 -4 -60 -18 -71 -17 -12 -18 -19 -8 -72 15 -78
14 -168 -1 -183 -7 -7 -21 -12 -31 -12 -15 0 -18 5 -14 23 3 12 11 87 16 167
16 209 22 260 32 260 5 0 12 -12 16 -27z m384 -5 c15 -27 40 -178 33 -190 -14
-22 -33 19 -39 80 -3 37 -8 82 -11 100 -6 37 0 41 17 10z m114 -32 c21 -49 54
-247 57 -336 l3 -75 -32 -3 c-29 -3 -32 0 -37 30 -12 71 -26 256 -26 335 0 90
11 106 35 49z m-2685 3 c0 -5 -4 -9 -10 -9 -5 0 -10 7 -10 16 0 8 5 12 10 9 6
-3 10 -10 10 -16z m2271 -176 c0 -174 -5 -218 -21 -208 -18 11 -32 145 -21
190 6 24 11 72 11 107 0 75 9 113 22 100 5 -5 9 -90 9 -189z m-802 20 c1 -34
-3 -65 -9 -68 -5 -3 -10 -28 -10 -55 0 -26 -3 -55 -6 -64 -7 -17 -39 -22 -48
-7 -10 16 25 285 42 326 l17 40 7 -55 c3 -30 6 -83 7 -117z m617 50 c-10 -199
-18 -283 -26 -283 -15 0 -23 105 -18 238 4 131 9 152 34 152 14 0 15 -15 10
-107z m-505 60 c8 -20 7 -42 -1 -78 -6 -27 -11 -66 -9 -85 5 -68 -1 -107 -20
-129 -11 -13 -22 -28 -25 -34 -3 -8 -10 -5 -20 7 -18 22 -19 61 -7 210 7 86
11 102 31 118 30 24 39 23 51 -9z m2519 1 c0 -8 -4 -14 -10 -14 -5 0 -10 9
-10 21 0 11 5 17 10 14 6 -3 10 -13 10 -21z m-4823 -36 c-8 -68 -52 -180 -121
-311 -77 -146 -94 -194 -108 -307 -6 -46 -17 -91 -25 -98 -7 -7 -13 -20 -13
-28 0 -22 -39 -95 -65 -124 -13 -14 -28 -41 -33 -60 l-10 -35 -1 43 c-2 77 37
234 105 428 36 104 76 209 89 234 12 25 26 56 30 70 10 33 94 161 117 178 10
7 18 22 18 33 0 10 5 19 11 19 7 0 9 -15 6 -42z m689 7 c7 -29 -11 -81 -32
-89 -8 -3 -14 -12 -14 -21 0 -18 -21 -20 -38 -3 -9 9 -13 7 -17 -8 -7 -21 -9
-24 -49 -84 -24 -37 -30 -41 -38 -26 -16 29 1 72 58 137 29 34 54 66 54 71 0
4 9 8 20 8 13 0 20 7 20 20 0 29 28 25 36 -5z m3635 -101 c26 -128 41 -342 37
-549 -3 -152 -5 -180 -18 -180 -13 0 -16 30 -22 180 -3 99 -16 275 -27 390
-12 116 -21 226 -21 245 0 63 30 11 51 -86z m-1091 48 c1 -20 7 -66 15 -102
17 -76 19 -156 5 -165 -16 -10 -31 43 -41 144 -9 96 -3 175 12 165 5 -3 9 -22
9 -42z m670 -84 c10 -86 8 -110 -6 -95 -12 12 -23 92 -23 162 0 92 15 58 29
-67z m-2750 66 c0 -8 -4 -14 -10 -14 -5 0 -10 9 -10 21 0 11 5 17 10 14 6 -3
10 -13 10 -21z m-233 -114 c-9 -33 -17 -77 -17 -97 0 -21 -5 -45 -10 -53 -9
-13 -12 -12 -25 4 -19 25 -19 60 0 76 7 6 17 33 21 58 10 69 22 98 36 84 9 -9
7 -27 -5 -72z m4761 42 c6 -18 -15 -14 -22 4 -4 10 -1 14 6 12 6 -2 14 -10 16
-16z m-2341 -112 c3 -32 3 -67 -1 -77 -13 -33 -25 8 -31 108 -5 90 -4 93 10
61 9 -18 18 -59 22 -92z m-1258 58 c-1 -48 -2 -50 -10 -23 -9 28 -5 75 6 75 3
0 5 -24 4 -52z m-959 -18 c0 -11 -4 -20 -10 -20 -5 0 -10 9 -10 20 0 11 5 20
10 20 6 0 10 -9 10 -20z m4675 -97 c27 -40 34 -71 9 -38 -20 26 -46 75 -40 75
3 0 17 -17 31 -37z m-4718 -35 c-3 -8 -6 -5 -6 6 -1 11 2 17 5 13 3 -3 4 -12
1 -19z m3176 -33 c5 -16 11 -156 14 -310 7 -352 7 -339 -8 -367 -12 -22 -12
-22 -20 -3 -4 11 -8 60 -8 109 -1 48 -8 194 -17 324 -8 130 -12 247 -9 260 8
32 36 25 48 -13z m-3836 3 c-3 -8 -6 -5 -6 6 -1 11 2 17 5 13 3 -3 4 -12 1
-19z m441 -37 c2 -24 -4 -55 -13 -74 -9 -18 -19 -51 -22 -75 -9 -67 -26 -63
-20 4 15 164 47 250 55 145z m5022 -12 c0 -11 -6 -19 -14 -19 -17 0 -31 34
-21 50 10 16 35 -8 35 -31z m-4814 -35 c-10 -26 -26 -4 -20 24 4 15 10 32 13
37 8 13 14 -42 7 -61z m3068 5 c17 -46 20 -90 23 -314 4 -248 1 -325 -15 -325
-18 0 -33 95 -42 263 -5 100 -12 212 -16 248 -5 58 -3 68 13 78 17 10 17 10 1
11 -14 0 -18 8 -18 34 0 82 26 85 54 5z m740 -77 c-8 -20 -23 50 -22 108 0 28
3 23 15 -28 8 -34 11 -70 7 -80z m-4488 104 c7 -28 -2 -49 -17 -41 -12 8 -12
65 1 65 5 0 12 -11 16 -24z m3640 -119 c10 -52 14 -132 13 -217 -2 -75 1 -141
5 -148 4 -8 0 -24 -11 -40 l-18 -27 -7 65 c-3 36 -9 160 -13 275 -5 161 -4
206 5 192 7 -10 18 -55 26 -100z m-89 -10 c4 -100 -12 -77 -22 34 -6 62 -5 72
6 61 9 -8 15 -42 16 -95z m-3592 74 c8 -26 -5 -73 -19 -68 -12 4 -20 51 -12
73 8 20 24 17 31 -5z m3517 -36 c3 -27 7 -111 7 -185 1 -107 -2 -140 -14 -158
-13 -18 -14 -28 -5 -59 8 -26 9 -77 3 -162 -8 -124 -8 -125 -35 -132 -34 -9
-35 -6 -27 166 3 77 1 233 -4 346 -6 113 -7 214 -4 223 5 12 16 16 39 14 31
-3 33 -5 40 -53z m-271 11 c-7 -8 -4 -15 9 -24 10 -6 22 -28 26 -48 9 -49 -13
-222 -31 -251 -8 -12 -15 -29 -15 -38 0 -8 -6 -15 -14 -15 -11 0 -16 24 -21
98 -3 53 -10 138 -15 187 -8 94 -6 110 14 102 7 -3 19 -1 26 3 19 12 34 1 21
-14z m141 -146 c1 -99 -3 -155 -11 -163 -8 -8 -7 -15 5 -28 14 -16 14 -18 -6
-24 -12 -4 -26 -3 -31 2 -5 5 -9 84 -10 175 0 148 2 169 18 186 10 10 22 16
27 11 4 -4 8 -75 8 -159z m2168 126 c4 -21 4 -36 -1 -36 -5 0 -9 4 -9 9 0 5
-3 24 -6 42 -9 45 5 31 16 -15z m-2650 14 c0 -11 -4 -20 -10 -20 -5 0 -10 9
-10 20 0 11 5 20 10 20 6 0 10 -9 10 -20z m110 -117 c0 -63 -12 -84 -24 -40
-3 12 -5 54 -5 92 1 67 1 69 14 40 8 -16 14 -58 15 -92z m121 105 c1 -7 3 -89
5 -183 3 -174 -1 -195 -36 -195 -20 0 -25 33 -36 240 -3 63 -8 123 -10 133 -5
14 1 17 35 17 26 0 41 -5 42 -12z m-682 -12 c14 -16 4 -46 -14 -46 -16 0 -29
35 -20 50 9 14 20 13 34 -4z m274 -15 c-3 -10 2 -32 11 -49 12 -24 16 -60 15
-154 -1 -135 -8 -183 -24 -158 -14 21 -20 394 -7 386 6 -3 8 -14 5 -25z
m-1430 13 c8 -9 -13 -52 -29 -58 -10 -4 -14 3 -14 23 0 31 26 52 43 35z m327
0 c0 -3 -13 -19 -30 -34 l-30 -28 0 23 c0 13 8 29 18 34 19 12 42 14 42 5z
m-1674 -29 c7 -29 -1 -55 -17 -55 -6 0 -8 7 -5 16 3 8 2 24 -4 33 -9 18 -4 31
11 31 5 0 11 -11 15 -25z m1121 -1 c-9 -9 -28 6 -21 18 4 6 10 6 17 -1 6 -6 8
-13 4 -17z m703 -149 c0 -142 -3 -175 -14 -175 -33 0 -37 24 -26 161 12 152
18 189 31 189 5 0 9 -75 9 -175z m208 134 c-1 -13 -7 -23 -13 -22 -13 3 -18
30 -11 50 10 24 29 1 24 -28z m276 10 c-3 -5 -14 -9 -25 -9 -21 0 -26 26 -6
33 15 5 39 -12 31 -24z m299 -70 c6 -72 5 -86 -9 -96 -14 -10 -15 -24 -9 -96
7 -90 -5 -124 -26 -70 -17 44 -17 316 0 337 25 30 36 11 44 -75z m-444 59 c13
-35 10 -319 -3 -323 -61 -18 -66 -17 -66 18 0 18 5 38 11 44 7 7 7 33 0 87
-17 117 -15 147 9 153 11 3 20 14 20 24 0 26 19 24 29 -3z m271 -13 c0 -20 -6
-37 -15 -43 -13 -7 -14 -16 -4 -61 6 -29 9 -88 7 -131 -3 -86 -16 -112 -46
-94 -15 10 -17 33 -20 176 l-2 164 27 11 c46 18 53 16 53 -22z m272 13 c7 -13
13 -71 15 -133 2 -60 5 -130 6 -154 2 -36 -2 -45 -19 -51 -39 -15 -44 0 -51
146 -8 177 13 257 49 192z m274 -95 c-8 -118 -16 -147 -37 -126 -16 16 -8 206
10 227 29 35 34 17 27 -101z m-1535 51 c20 -87 -7 -249 -41 -249 -27 0 -35 50
-22 148 19 155 42 191 63 101z m116 41 c8 -23 -18 -274 -29 -281 -6 -4 -17 0
-25 9 -22 21 -8 214 13 196 23 -19 27 -4 9 31 -13 25 -14 35 -4 46 15 18 28
18 36 -1z m193 0 c0 -8 -4 -15 -10 -15 -5 0 -10 7 -10 15 0 8 5 15 10 15 6 0
10 -7 10 -15z m-760 -40 c11 -14 -22 -115 -37 -115 -32 0 -28 124 4 148 16 11
18 11 22 -5 2 -10 7 -22 11 -28z m100 25 c6 -11 17 -20 25 -20 18 0 20 -42 4
-126 -19 -104 -57 -135 -85 -67 -17 39 -15 97 4 148 6 17 14 42 17 58 6 32 20
35 35 7z m1160 0 c6 -11 10 -26 9 -33 -2 -6 5 -37 14 -67 10 -30 20 -87 24
-125 5 -59 3 -74 -11 -88 -21 -20 -40 -22 -53 -4 -22 27 -24 337 -2 337 5 0
13 -9 19 -20z m-1386 -21 c-7 -109 -18 -156 -44 -188 -16 -18 -33 -30 -39 -27
-16 10 -14 84 4 143 25 84 82 136 79 72z m1106 -19 c0 -39 -4 -51 -20 -60 -19
-10 -19 -13 -5 -33 36 -51 1 -172 -48 -165 -21 3 -22 7 -22 113 1 109 17 191
36 179 5 -3 7 -10 4 -15 -4 -5 -2 -9 4 -9 6 0 15 9 21 20 18 34 30 22 30 -30z
m-735 3 c5 -23 2 -32 -22 -50 -22 -18 -25 -25 -15 -35 12 -12 16 -85 6 -112
-3 -9 -15 -16 -25 -16 -24 0 -25 43 -3 143 25 110 43 132 59 70z m3354 -258
c1 -127 -11 -241 -27 -257 -11 -11 -5 516 6 542 8 20 20 -137 21 -285z m-3248
242 c-5 -12 -12 -47 -16 -77 -4 -30 -13 -70 -21 -87 -13 -33 -39 -44 -46 -21
-7 21 4 58 16 58 9 0 12 22 12 72 -1 68 0 72 24 78 34 9 41 4 31 -23z m326 -4
c-8 -7 -47 7 -47 17 0 14 45 16 48 2 2 -8 1 -16 -1 -19z m833 -50 c0 -116 -11
-204 -21 -178 -9 24 -11 191 -3 234 12 59 24 31 24 -56z m-2545 57 c10 -16
-16 -43 -28 -31 -11 11 -2 41 12 41 5 0 13 -5 16 -10z m540 -27 c-9 -50 -25
-66 -25 -26 0 38 9 63 22 63 6 0 8 -14 3 -37z m1561 11 c4 -15 2 -55 -5 -89
-6 -34 -11 -83 -11 -108 0 -25 -5 -49 -10 -52 -15 -9 -40 57 -40 106 0 36 2
41 20 36 24 -6 24 -4 4 35 -15 30 -15 34 1 65 22 40 32 42 41 7z m814 16 c0
-5 -4 -10 -10 -10 -5 0 -10 5 -10 10 0 6 5 10 10 10 6 0 10 -4 10 -10z m-2976
-47 c3 -21 6 -56 6 -78 -1 -37 -2 -39 -15 -21 -16 21 -21 136 -6 136 4 0 11
-17 15 -37z m730 -10 c-7 -40 -24 -69 -24 -41 0 18 20 78 26 78 3 0 2 -17 -2
-37z m1030 -26 c7 -34 6 -54 -2 -67 -6 -10 -8 -34 -5 -55 5 -34 4 -37 -17 -33
-31 4 -43 45 -35 127 7 74 11 83 33 79 11 -2 20 -19 26 -51z m-939 -62 c-5
-39 -44 -106 -45 -79 0 14 20 126 26 144 11 31 26 -21 19 -65z m1006 -12 c-8
-15 -10 -10 -11 23 0 22 3 44 8 48 11 12 14 -52 3 -71z m-1861 11 c21 -62 4
-138 -62 -273 -36 -76 -48 -68 -48 33 0 56 3 67 15 63 10 -5 16 3 19 26 21
148 33 187 56 187 5 0 14 -16 20 -36z m3782 -4 c3 -17 1 -33 -4 -36 -4 -3 -8
11 -8 30 0 44 6 47 12 6z m-2704 -2 c-6 -18 -28 -21 -28 -4 0 9 7 16 16 16 9
0 14 -5 12 -12z m2122 -56 c0 -28 -4 -42 -9 -36 -17 17 -18 100 -1 89 6 -3 10
-27 10 -53z m-88 -24 c-6 -6 -18 -8 -28 -4 -15 6 -15 9 7 32 24 26 24 26 27 4
2 -12 -1 -27 -6 -32z m-2512 11 c0 -6 -4 -7 -10 -4 -5 3 -10 11 -10 16 0 6 5
7 10 4 6 -3 10 -11 10 -16z m5283 -79 c28 -80 30 -102 10 -98 -26 5 -43 46
-43 108 0 61 9 58 33 -10z m-2311 -15 c10 -34 1 -216 -13 -252 -5 -13 -15 -23
-24 -23 -13 0 -15 20 -15 133 0 72 3 142 6 155 9 32 36 24 46 -13z m-3202 15
c0 -5 -4 -10 -9 -10 -6 0 -13 5 -16 10 -3 6 1 10 9 10 9 0 16 -4 16 -10z
m3065 0 c12 -19 24 -133 16 -148 -6 -10 -10 -11 -15 -3 -10 15 -26 14 -26 -3
0 -7 7 -27 15 -42 16 -32 21 -139 6 -149 -22 -13 -39 27 -45 107 -6 79 4 214
19 237 8 14 22 14 30 1z m-2245 -46 c16 -19 17 -177 1 -216 -19 -50 -43 -32
-65 47 -12 42 -10 154 3 169 17 20 45 20 61 0z m116 -135 c-6 -122 -11 -139
-38 -139 -16 0 -19 5 -14 23 3 12 10 73 16 136 6 63 13 119 17 124 15 25 25
-46 19 -144z m352 130 c-2 -6 -8 -10 -13 -10 -5 0 -11 4 -13 10 -2 6 4 11 13
11 9 0 15 -5 13 -11z m-722 -35 c19 -46 15 -84 -11 -98 -11 -6 -22 -12 -24
-13 -2 -2 2 -10 9 -18 11 -13 11 -19 -2 -32 -30 -30 -41 -6 -34 74 11 124 34
155 62 87z m1227 -10 c14 -65 -7 -214 -31 -222 -15 -5 -15 0 -13 108 2 111 10
162 24 157 6 -2 15 -21 20 -43z m1157 -15 c0 -33 -5 -51 -14 -55 -10 -4 -12
-29 -8 -122 4 -102 2 -119 -13 -132 -22 -19 -50 -1 -49 31 2 34 43 256 56 301
15 50 28 39 28 -23z m452 -1 c-15 -15 -21 14 -9 42 l11 25 4 -29 c2 -16 -1
-33 -6 -38z m92 -3 c6 -55 5 -58 -9 -41 -15 20 -21 87 -8 99 9 10 10 8 17 -58z
m-1806 39 c16 -11 22 -25 22 -54 0 -21 -5 -40 -12 -42 -9 -3 -9 -21 1 -77 15
-81 10 -94 -41 -106 -47 -12 -55 26 -44 210 2 44 5 81 5 83 3 8 50 -1 69 -14z
m2118 -42 c-12 -11 -17 7 -9 34 l8 29 3 -28 c2 -16 1 -31 -2 -35z m-1762 17
c10 -49 7 -167 -4 -174 -5 -3 -19 9 -30 27 -17 26 -20 45 -17 90 5 80 38 118
51 57z m436 23 c0 -4 -5 -13 -11 -19 -8 -8 -7 -17 5 -34 9 -13 16 -34 16 -47
0 -27 -28 -41 -41 -21 -10 16 -12 113 -2 122 9 10 33 9 33 -1z m-1436 -125
c-2 -128 -6 -149 -29 -141 -26 10 -37 78 -25 156 12 78 25 111 43 105 8 -3 12
-39 11 -120z m137 111 c3 -28 -4 -136 -10 -180 -5 -27 -4 -51 2 -57 10 -10 1
-31 -14 -31 -5 0 -9 9 -9 19 0 23 -22 40 -28 23 -3 -10 -42 -18 -42 -9 0 39
34 206 45 223 16 25 54 33 56 12z m207 -145 l3 -151 -32 -26 c-43 -36 -60 -35
-40 3 5 9 14 77 20 151 13 152 19 182 35 177 7 -2 12 -54 14 -154z m172 12 c0
-103 -3 -125 -20 -153 -11 -18 -25 -30 -31 -27 -7 5 -5 15 5 30 12 19 13 30 4
55 -20 58 10 265 33 228 5 -7 9 -67 9 -133z m712 58 c1 -21 -2 -38 -8 -40 -20
-7 -32 75 -17 113 6 15 8 14 14 -9 4 -16 9 -44 11 -64z m-1832 14 c0 -74 -25
-170 -43 -164 -7 2 -11 15 -11 28 4 54 22 178 28 188 16 26 26 7 26 -52z
m2300 21 c0 -10 -4 -18 -9 -18 -10 0 -21 47 -13 55 8 7 22 -17 22 -37z m98
-140 c-4 -103 -8 -132 -22 -147 -11 -12 -16 -31 -14 -53 3 -31 1 -33 -32 -38
l-35 -5 65 -47 c171 -125 213 -124 601 25 53 20 84 25 165 26 208 2 209 2 282
-29 79 -34 122 -37 205 -15 50 13 64 13 114 0 35 -9 103 -15 179 -15 118 0
122 -1 157 -29 20 -15 51 -34 69 -41 80 -29 108 -44 126 -64 48 -54 184 -327
223 -446 10 -30 27 -80 37 -110 24 -67 34 -120 24 -120 -4 0 -25 30 -47 68
-28 47 -40 62 -43 49 -3 -17 -7 -16 -33 9 -28 27 -29 27 -49 9 -26 -24 -25
-46 5 -91 24 -35 25 -35 25 -12 0 14 -7 31 -15 38 -19 16 -19 30 -1 30 15 0
72 -123 59 -127 -32 -12 -36 -21 -21 -46 9 -13 22 -44 28 -68 17 -65 51 -139
61 -134 4 3 3 19 -3 36 -6 16 -8 32 -6 35 8 7 48 -95 55 -139 7 -46 7 -46 -97
-9 -30 11 -108 29 -173 40 -65 12 -129 28 -142 36 -37 24 -95 18 -95 -9 0 -14
-151 -90 -220 -110 -149 -44 -428 -69 -765 -70 -272 0 -283 1 -386 27 -140 36
-189 44 -189 29 0 -6 19 -29 42 -52 63 -61 273 -160 428 -201 124 -33 127 -33
328 -31 l202 2 -2 -57 c-3 -48 0 -57 16 -60 10 -2 23 2 27 10 13 19 29 -8 29
-48 0 -35 20 -67 36 -56 6 4 18 20 26 36 l15 29 7 -46 c8 -51 8 -52 37 -36 16
8 25 7 38 -5 27 -24 49 -19 70 15 l18 30 14 -56 c8 -31 19 -57 24 -58 6 -1 19
17 30 41 24 51 35 54 35 8 0 -47 9 -66 31 -66 12 0 23 -10 29 -25 9 -22 13
-24 31 -15 25 14 25 14 36 -29 5 -19 14 -36 20 -38 7 -3 26 20 42 49 l31 53 0
-75 c0 -114 11 -117 58 -16 48 102 68 112 58 30 -17 -145 -19 -201 -6 -209 18
-11 36 14 54 77 28 99 40 85 32 -40 -7 -118 -6 -120 39 -103 16 6 20 18 21 60
1 56 10 74 24 51 23 -36 3 -132 -31 -151 -13 -7 -19 -21 -19 -44 0 -44 -13
-44 -52 -2 l-30 32 6 -80 7 -80 -21 28 c-29 37 -42 34 -34 -8 3 -19 3 -42 0
-51 -6 -15 -8 -15 -30 -1 -27 18 -36 13 -36 -20 0 -32 -26 -40 -52 -17 -15 14
-22 15 -25 7 -3 -7 -13 -23 -23 -35 -15 -19 -20 -20 -34 -9 -14 11 -18 10 -33
-8 -10 -11 -33 -24 -50 -27 -28 -5 -37 -2 -62 24 -29 32 -41 32 -41 1 0 -31
-20 -31 -56 0 -19 17 -37 31 -39 31 -14 0 -55 -25 -59 -37 -6 -15 27 -122 50
-163 14 -24 15 -22 9 29 -3 30 -10 62 -16 72 -5 10 -9 26 -9 36 0 15 3 14 23
-7 16 -17 38 -77 72 -195 69 -247 132 -440 170 -522 47 -102 71 -95 44 13 -14
53 -8 63 19 36 11 -11 24 -21 29 -23 6 -2 23 -24 39 -49 l29 -45 3 63 c2 34 5
62 9 62 3 0 19 -12 37 -27 l31 -26 3 46 c3 39 6 47 23 47 13 0 25 -12 35 -35
20 -48 32 -44 36 12 3 52 23 67 51 38 27 -27 47 -12 47 35 0 10 9 28 19 41 19
23 20 23 34 5 16 -22 37 -14 37 15 0 28 37 61 61 54 15 -5 19 -2 19 19 0 16 9
32 25 42 13 9 31 28 38 42 8 15 22 41 31 57 9 17 16 40 16 53 0 13 7 37 16 54
22 42 36 173 39 358 3 165 4 168 66 280 11 19 35 65 53 101 40 76 49 84 99 92
90 14 137 47 245 174 151 177 259 256 554 404 89 45 116 48 146 17 23 -26 46
-78 37 -87 -3 -3 -28 7 -55 22 -26 15 -56 27 -67 27 -10 0 -70 -30 -133 -67
-90 -52 -134 -86 -203 -156 -49 -49 -97 -103 -108 -120 -26 -43 -24 -87 6
-131 18 -27 25 -50 25 -85 0 -92 57 -270 102 -318 16 -17 20 -31 15 -62 -5
-40 -51 -151 -66 -161 -4 -3 -14 -17 -22 -31 -8 -15 -25 -46 -38 -70 -13 -24
-58 -79 -100 -121 -135 -137 -128 -127 -135 -215 -11 -132 -27 -233 -47 -297
-22 -71 -107 -221 -144 -253 -47 -42 -154 -24 -181 30 -9 18 -23 39 -31 48 -7
9 -16 39 -20 68 -4 39 -10 51 -23 51 -25 0 -36 -33 -71 -203 -17 -83 -40 -174
-50 -200 -11 -26 -19 -56 -19 -67 0 -54 -41 -15 -42 41 -1 43 -16 35 -29 -17
-7 -25 -18 -48 -24 -51 -18 -6 -32 -45 -45 -127 -17 -108 -36 -131 -58 -73
-17 43 -29 23 -38 -61 -7 -68 -14 -70 -34 -9 -14 45 -26 41 -35 -13 -8 -46
-20 -58 -34 -33 -9 17 -10 17 -30 -1 -12 -11 -21 -31 -21 -47 0 -35 -19 -48
-36 -25 -14 20 -34 14 -34 -10 0 -9 -11 -14 -34 -14 -28 0 -35 -4 -38 -23 -8
-49 -128 231 -128 300 0 15 -9 42 -20 58 -11 17 -20 38 -20 48 0 20 -11 22
-29 5 -10 -11 -14 -10 -22 5 -6 9 -17 17 -24 17 -8 0 -15 9 -15 20 0 39 -18
19 -29 -30 -16 -74 -14 -101 6 -98 11 2 19 -7 24 -26 4 -15 16 -37 25 -47 10
-11 18 -34 19 -52 2 -17 7 -63 14 -102 19 -126 14 -297 -13 -410 -29 -117 -61
-209 -87 -246 -10 -15 -23 -39 -29 -54 -29 -77 -260 -415 -307 -450 -8 -6 -19
-20 -26 -31 -7 -12 -25 -41 -41 -65 -102 -154 -191 -295 -231 -369 -33 -62
-71 -111 -138 -179 -79 -80 -105 -100 -182 -137 -142 -68 -198 -79 -685 -134
-186 -22 -648 -6 -884 30 -253 39 -358 61 -363 79 -5 19 -30 37 -164 114 -101
59 -173 127 -235 222 -17 28 -49 66 -69 85 -20 19 -51 55 -68 80 -28 40 -104
130 -232 275 -216 244 -317 425 -346 621 -5 38 -13 92 -17 120 -4 29 -13 58
-20 66 -29 36 -24 287 10 458 6 30 14 87 17 125 6 66 19 101 49 133 13 14 7
36 -8 27 -17 -11 -20 15 -5 39 17 26 17 77 0 83 -6 2 -16 -9 -22 -24 -7 -16
-17 -35 -22 -43 -18 -28 -61 -129 -61 -143 0 -8 -7 -21 -17 -28 -22 -19 -113
-207 -113 -235 0 -13 -4 -26 -10 -29 -5 -3 -14 -25 -20 -48 -6 -23 -15 -53
-21 -66 -15 -36 -34 -12 -65 82 -15 45 -37 105 -49 133 -13 29 -26 71 -29 95
-4 24 -16 90 -28 145 -22 107 -19 174 7 174 8 0 18 -14 23 -32 8 -33 32 -51
32 -24 0 18 15 21 25 6 12 -19 26 -10 41 25 13 32 18 35 54 35 36 0 41 3 54
34 10 25 22 36 45 41 39 8 51 30 51 97 1 53 1 53 16 26 19 -35 44 -37 44 -3 0
14 9 34 20 45 14 14 20 33 20 66 0 41 2 45 23 42 16 -2 23 3 25 20 4 26 14 28
33 6 12 -14 14 -14 20 3 4 10 8 42 8 71 1 45 4 52 21 52 12 0 25 10 32 25 6
14 15 25 20 25 4 0 8 31 8 69 0 69 20 195 41 258 10 31 13 33 42 28 32 -6 32
-6 50 54 9 33 17 75 17 93 0 41 12 60 32 53 20 -8 24 -1 32 55 5 32 2 51 -8
65 -14 19 -15 19 -27 -8 l-13 -28 -14 27 c-12 22 -16 24 -27 13 -8 -8 -17 -29
-22 -48 -10 -39 -33 -54 -33 -22 0 30 -17 26 -38 -9 -29 -46 -100 -105 -266
-217 -29 -20 -61 -33 -80 -33 -17 0 -42 -6 -56 -13 -24 -12 -26 -11 -55 48
-24 48 -36 62 -61 69 -41 12 -54 53 -47 151 6 73 6 73 24 52 l18 -22 23 22
c17 18 20 25 10 35 -18 18 -15 28 10 28 21 0 21 1 -7 30 -16 16 -25 33 -21 37
4 4 22 -10 40 -31 42 -51 59 -42 50 25 -7 51 2 63 26 34 17 -21 33 -14 40 16
4 18 13 25 38 27 20 2 32 9 32 18 0 8 7 14 15 14 21 0 19 38 -4 83 -10 20 -17
37 -15 37 3 0 22 -19 43 -41 l38 -41 -5 82 c-6 97 6 100 44 13 28 -64 48 -62
38 3 -6 40 -4 44 15 44 11 0 21 -6 21 -12 1 -21 30 24 30 46 1 21 1 21 16 1
15 -20 15 -20 30 -1 8 11 14 34 14 52 0 40 22 61 40 39 21 -26 33 -17 26 20
-8 40 1 44 28 13 l19 -22 15 22 c8 12 20 22 28 22 7 0 18 9 24 20 6 11 15 18
20 15 5 -3 17 6 26 20 9 14 24 24 33 23 10 -2 16 5 17 21 3 46 21 49 217 44
192 -5 229 -1 386 42 128 35 224 87 260 139 40 57 71 122 71 145 0 18 -2 18
-75 -5 -41 -13 -157 -39 -257 -58 -101 -19 -217 -42 -258 -51 -64 -14 -127
-16 -420 -13 -341 4 -346 4 -395 28 -43 21 -65 24 -153 25 -107 0 -127 8 -115
44 4 10 -4 7 -23 -9 -71 -62 -71 -62 -77 -46 -4 10 12 33 42 64 27 27 54 59
61 72 7 14 17 19 27 15 20 -7 33 11 33 48 0 15 5 27 10 27 6 0 10 -6 10 -14 0
-28 50 -56 101 -56 26 0 51 -4 54 -10 9 -15 48 -12 73 5 12 9 39 46 61 83 22
37 63 90 93 118 67 64 192 148 274 185 77 35 231 76 319 85 63 7 67 5 162 -42
111 -54 171 -108 267 -239 33 -44 61 -82 63 -84 1 -2 22 -7 45 -11 24 -4 51
-11 60 -15 29 -12 68 36 68 84 0 61 -62 224 -109 286 -49 65 -92 95 -239 169
-95 48 -128 59 -210 71 -208 32 -351 14 -516 -63 -148 -70 -263 -159 -339
-262 -23 -30 -54 -68 -71 -85 l-29 -30 6 33 c4 18 1 43 -5 57 -8 18 -8 38 -1
70 13 56 0 58 -27 5 -11 -22 -22 -40 -25 -40 -3 0 -2 27 2 60 4 41 2 69 -7 84
-9 18 -9 29 -1 44 13 25 14 59 2 66 -12 8 -60 -74 -68 -116 -7 -39 -52 -132
-60 -125 -5 5 41 153 59 189 4 10 8 32 8 49 0 40 -21 34 -34 -9 -5 -18 -13
-32 -18 -32 -19 0 -19 32 1 65 23 40 28 79 9 73 -7 -3 -28 -27 -46 -54 l-34
-49 6 35 c3 19 8 52 12 74 6 36 5 38 -15 31 -15 -4 -21 -2 -21 9 0 8 5 18 10
21 6 3 10 31 10 61 0 37 4 54 13 54 7 0 18 14 24 31 10 26 16 31 38 27 17 -4
25 -1 25 8 0 17 13 17 63 3 31 -8 43 -7 62 5 14 9 33 16 45 16 11 0 20 4 20 8
0 11 60 35 95 37 17 1 53 7 80 13 119 26 273 43 452 51 105 5 196 12 202 15 6
4 73 11 149 16 276 18 342 38 475 145 37 30 75 55 85 55 48 1 58 11 71 69 10
44 10 64 2 80 -13 23 -4 148 10 157 5 3 14 -7 19 -21 11 -30 30 -25 30 8 0 12
4 28 9 35 25 40 29 -260 5 -336 -15 -47 -15 -52 0 -67 9 -9 16 -30 16 -47 0
-41 18 -33 58 28 l32 49 0 -47 c0 -26 5 -50 11 -54 6 -3 24 9 40 27 24 29 30
32 39 19 5 -8 10 -30 10 -47 0 -47 25 -42 51 10 l22 42 20 -44 19 -43 19 31
c24 40 35 39 54 -5 18 -44 35 -40 49 11 14 49 30 54 46 15 l13 -32 23 29 c22
26 25 26 34 11 24 -39 90 -6 90 44 0 21 4 22 30 6 15 -10 22 -9 38 5 12 11 26
15 37 11 16 -6 17 -3 12 24 -7 34 3 41 23 17 24 -29 30 -15 30 67 0 80 0 82
35 114 34 31 35 34 35 106 0 84 8 101 28 62 11 -21 13 -57 10 -156z m-2158
148 c0 -13 -6 -26 -12 -29 -10 -3 -8 -9 5 -24 22 -26 22 -55 -3 -84 -23 -29
-34 -18 -44 43 -5 30 -1 48 16 78 26 46 38 50 38 16z m3454 -33 c1 -28 -3 -38
-14 -38 -16 0 -26 54 -15 83 10 25 27 -2 29 -45z m-1939 27 c7 -23 -2 -58 -20
-80 -7 -8 -15 -26 -17 -39 -9 -65 -48 2 -48 83 0 33 2 36 30 36 17 0 30 5 30
10 0 18 18 11 25 -10z m-730 -20 c-5 -8 -11 -8 -17 -2 -6 6 -7 16 -3 22 5 8
11 8 17 2 6 -6 7 -16 3 -22z m888 -12 c7 -24 -10 -51 -24 -42 -10 6 -12 48 -2
57 12 12 21 7 26 -15z m-1079 -3 c3 -9 9 -51 12 -94 l7 -79 -31 -16 -31 -16 5
97 c3 54 7 104 10 111 5 17 21 15 28 -3z m-931 -137 c-2 -5 -20 -8 -40 -8 -30
0 -34 3 -28 18 4 9 14 35 22 57 7 22 17 47 20 55 3 8 12 -14 19 -50 6 -36 10
-68 7 -72z m1118 12 c-8 -77 -22 -112 -37 -97 -6 6 11 152 23 191 5 17 6 17
14 3 6 -9 6 -49 0 -97z m2794 80 c-3 -5 -12 -10 -20 -10 -8 0 -17 5 -20 10 -4
6 5 10 20 10 15 0 24 -4 20 -10z m-4044 -40 c22 -71 -21 -115 -122 -127 -29
-3 -53 -12 -56 -19 -8 -21 -33 -16 -33 6 0 13 11 25 34 34 42 17 66 51 66 93
0 17 5 35 10 38 6 4 10 -6 10 -24 0 -42 9 -61 31 -61 14 0 20 10 25 50 4 28
10 50 15 50 4 0 14 -18 20 -40z m-688 1 c8 -36 -3 -102 -14 -95 -5 3 -7 9 -4
14 3 5 0 21 -5 36 -12 29 -6 74 9 74 5 0 11 -13 14 -29z m-43 -72 c6 -22 10
-53 7 -67 -3 -27 -4 -26 -20 10 -19 41 -23 98 -7 98 5 0 14 -18 20 -41z m5192
-64 c24 -49 21 -60 -15 -51 -27 6 -37 30 -30 70 8 38 20 32 45 -19z m-5207
-144 c7 -45 -3 -111 -17 -111 -6 0 -8 9 -5 21 4 16 2 19 -10 15 -9 -4 -22 -1
-29 5 -16 13 -19 53 -4 44 6 -3 12 0 15 7 20 57 26 69 34 64 5 -4 12 -24 16
-45z m-31 -375 c19 -60 45 -196 46 -237 0 -15 -6 -29 -14 -32 -7 -3 -18 -23
-24 -44 l-10 -38 -1 52 c-1 28 4 55 9 58 15 10 12 42 -10 89 -22 49 -39 206
-23 206 6 0 18 -24 27 -54z m551 -365 c-4 -17 -11 -29 -16 -25 -10 6 -12 57
-2 67 14 14 25 -12 18 -42z m4930 -51 c3 -5 2 -10 -4 -10 -5 0 -13 5 -16 10
-3 6 -2 10 4 10 5 0 13 -4 16 -10z m-4973 -52 c-15 -15 -26 -4 -18 18 5 13 9
15 18 6 9 -9 9 -15 0 -24z m134 -25 c-11 -11 -19 6 -11 24 8 17 8 17 12 0 3
-10 2 -21 -1 -24z m4864 -1 c0 -15 -2 -15 -10 -2 -13 20 -13 33 0 25 6 -3 10
-14 10 -23z m-5914 -91 c6 -35 4 -43 -7 -39 -17 6 -34 61 -25 84 10 26 24 6
32 -45z m956 -7 c-2 -13 -8 -27 -13 -30 -10 -6 -12 36 -3 61 10 24 22 0 16
-31z m-112 -118 c0 -8 -4 -18 -10 -21 -5 -3 -10 3 -10 14 0 12 5 21 10 21 6 0
10 -6 10 -14z m-199 -49 c-13 -13 -26 -3 -16 12 3 6 11 8 17 5 6 -4 6 -10 -1
-17z m177 -79 c-3 -35 -28 -52 -28 -20 0 28 10 52 22 52 5 0 8 -14 6 -32z
m5232 10 c0 -19 -2 -20 -10 -8 -13 19 -13 30 0 30 6 0 10 -10 10 -22z m-5422
-15 c-5 -25 -28 -28 -28 -4 0 12 6 21 16 21 9 0 14 -7 12 -17z m5382 -43 c0
-5 -2 -10 -4 -10 -3 0 -8 5 -11 10 -3 6 -1 10 4 10 6 0 11 -4 11 -10z m-5435
-152 c75 -19 149 -21 190 -4 21 9 40 14 43 12 2 -3 1 -26 -3 -51 -6 -41 -11
-48 -41 -61 -19 -8 -34 -18 -34 -24 0 -5 -36 -28 -81 -51 -88 -46 -122 -80
-191 -193 -62 -101 -72 -99 -65 10 3 55 13 106 25 134 11 25 33 91 49 148 25
93 30 102 48 97 11 -4 38 -11 60 -17z m-937 3 c-2 -4 22 -28 52 -53 53 -43
119 -118 104 -118 -16 0 -214 153 -214 166 0 9 11 14 30 14 17 0 29 -4 28 -9z
m1262 -11 c0 -5 -5 -10 -11 -10 -5 0 -7 5 -4 10 3 6 8 10 11 10 2 0 4 -4 4
-10z m4457 -102 c-3 -8 -6 -5 -6 6 -1 11 2 17 5 13 3 -3 4 -12 1 -19z m-4049
-46 c2 -7 -3 -12 -12 -12 -9 0 -16 7 -16 16 0 17 22 14 28 -4z m-1408 -82 c30
-15 50 -18 84 -14 86 12 129 -24 192 -161 38 -83 44 -114 13 -72 -17 22 -24
25 -35 16 -8 -6 -14 -21 -14 -33 0 -37 60 -250 74 -264 19 -19 50 -7 67 26 7
15 14 28 15 30 1 2 16 -12 34 -30 27 -27 35 -47 51 -123 37 -179 69 -522 69
-733 0 -108 5 -275 10 -371 6 -96 8 -177 4 -180 -12 -12 -130 -4 -188 13 -107
31 -130 80 -131 273 0 151 5 159 74 120 55 -30 79 -34 87 -13 10 25 -15 56
-191 236 -142 145 -180 190 -212 251 l-38 74 1 155 c0 146 2 160 30 235 16 44
35 80 42 80 7 0 21 -12 30 -27 14 -24 15 -34 3 -85 -8 -32 -16 -97 -18 -144
-6 -106 8 -142 91 -244 73 -88 96 -134 103 -202 8 -71 36 -113 95 -137 59 -24
92 -17 107 25 36 103 -11 190 -167 314 -65 52 -72 64 -79 139 -5 52 1 88 33
214 l38 151 -23 53 c-13 29 -25 63 -28 75 -3 12 -34 54 -69 93 -35 39 -73 88
-84 110 -11 22 -39 63 -63 92 -70 87 -71 91 -7 58z m5791 -63 c-8 -8 -11 -7
-11 4 0 9 3 19 7 23 4 4 9 2 11 -4 3 -7 -1 -17 -7 -23z m-4731 -98 c0 -5 -4
-9 -10 -9 -5 0 -10 7 -10 16 0 8 5 12 10 9 6 -3 10 -10 10 -16z m-100 -59 c0
-5 -4 -10 -10 -10 -5 0 -10 5 -10 10 0 6 5 10 10 10 6 0 10 -4 10 -10z m-157
-72 c4 -12 4 -24 1 -27 -6 -7 -24 20 -24 37 0 21 17 13 23 -10z m-953 -163 c0
-8 -4 -15 -9 -15 -5 0 -11 7 -15 15 -3 9 0 15 9 15 8 0 15 -7 15 -15z m1380
-6 c0 -6 -4 -7 -10 -4 -5 3 -10 11 -10 16 0 6 5 7 10 4 6 -3 10 -11 10 -16z
m-479 -152 c-13 -13 -15 1 -4 30 7 17 8 17 11 -1 2 -10 -1 -23 -7 -29z m5195
-42 c16 -40 17 -45 6 -45 -11 0 -42 66 -35 74 11 10 14 7 29 -29z m24 -110 c0
-5 -5 -3 -10 5 -5 8 -10 20 -10 25 0 6 5 3 10 -5 5 -8 10 -19 10 -25z m-267
-132 c3 -5 8 -32 12 -60 6 -45 4 -53 -9 -53 -20 0 -36 39 -36 86 0 23 5 34 14
34 8 0 17 -3 19 -7z m64 -25 c-3 -7 -5 -2 -5 12 0 14 2 19 5 13 2 -7 2 -19 0
-25z m-138 -65 c21 -74 10 -96 -15 -30 -6 17 -15 40 -19 50 -5 12 -3 17 8 17
10 0 20 -15 26 -37z m-4098 -6 c-8 -8 -11 -7 -11 4 0 20 13 34 18 19 3 -7 -1
-17 -7 -23z m3859 -34 c0 -7 14 -57 31 -110 18 -54 37 -125 44 -158 8 -33 16
-68 20 -77 4 -10 3 -18 -3 -18 -11 0 -20 18 -32 65 -12 43 -30 93 -57 150 -29
63 -49 155 -39 181 7 19 8 19 22 0 8 -11 14 -26 14 -33z m146 -8 c8 -44 -2
-57 -16 -21 -13 34 -13 56 0 56 5 0 12 -16 16 -35z m396 -98 c-5 -20 -5 -20
-14 2 -4 13 -5 27 -2 33 10 16 22 -11 16 -35z m32 -73 c3 -9 6 -25 6 -37 -1
-22 -1 -22 -15 -3 -17 22 -20 56 -6 56 5 0 12 -7 15 -16z m-4620 -299 c-4 -8
-8 -15 -10 -15 -2 0 -4 7 -4 15 0 8 4 15 10 15 5 0 7 -7 4 -15z m-227 -242
c-3 -10 -5 -4 -5 12 0 17 2 24 5 18 2 -7 2 -21 0 -30z m-367 -892 c0 -10 11
-44 24 -77 41 -99 45 -166 8 -121 -17 20 -62 162 -68 214 l-5 48 20 -24 c12
-13 21 -31 21 -40z m5169 3 c-12 -28 -13 -28 -17 -6 -5 32 6 58 19 45 6 -6 6
-19 -2 -39z m-71 -126 c-17 -35 -39 -90 -48 -123 -16 -56 -19 -60 -48 -63 -18
-2 -32 1 -32 7 0 6 7 11 16 11 11 0 14 6 9 21 -5 14 0 28 13 42 11 12 27 36
35 52 18 35 75 115 82 115 3 0 -9 -28 -27 -62z m-4998 -203 c11 -33 25 -73 29
-90 4 -16 15 -44 24 -62 19 -36 21 -53 8 -53 -12 0 -66 124 -84 195 -9 33 -19
69 -23 80 -6 18 -5 18 9 5 8 -8 25 -42 37 -75z m4870 -34 c0 -5 -16 -30 -35
-55 -19 -26 -35 -51 -35 -57 0 -22 -35 -75 -84 -127 -28 -29 -60 -69 -71 -87
-59 -97 -121 -172 -234 -282 -69 -67 -127 -120 -129 -118 -5 5 18 46 44 78 13
16 24 34 24 41 0 7 11 23 25 36 14 13 25 29 25 35 0 7 50 62 110 123 61 61
110 117 110 125 0 7 11 24 24 36 14 13 41 52 62 87 62 105 164 208 164 165z
m-4750 -257 c0 -8 -4 -12 -10 -9 -5 3 -10 10 -10 16 0 5 5 9 10 9 6 0 10 -7
10 -16z m54 -110 c17 -37 17 -55 -1 -32 -16 22 -33 68 -25 68 5 0 16 -16 26
-36z m321 -434 c3 -5 1 -10 -4 -10 -6 0 -11 5 -11 10 0 6 2 10 4 10 3 0 8 -4
11 -10z m205 -287 c0 -22 -2 -25 -10 -13 -13 20 -13 40 0 40 6 0 10 -12 10
-27z m93 -60 c17 -34 12 -53 -14 -53 -13 0 -19 7 -19 21 0 12 -8 23 -20 26
-35 9 -20 27 27 32 7 0 19 -11 26 -26z m88 -104 c43 -52 225 -191 347 -266 95
-58 280 -139 339 -147 55 -8 141 -34 148 -45 2 -4 -4 -30 -14 -57 -57 -151
-50 -221 43 -409 36 -71 68 -141 71 -155 4 -14 15 -34 25 -45 10 -11 20 -31
22 -45 4 -34 43 -40 52 -8 20 72 67 311 62 316 -4 3 -12 0 -18 -6 -23 -23 -26
-12 -13 39 17 63 2 62 -40 -4 -45 -71 -58 -60 -29 25 13 39 24 77 24 85 0 24
-18 13 -42 -24 -39 -64 -35 -7 8 92 20 47 33 89 29 93 -8 8 -42 -31 -68 -78
-31 -58 -29 -24 3 54 34 81 45 95 63 77 7 -7 15 -7 25 2 20 16 214 15 441 -3
230 -17 417 -9 636 30 94 17 218 37 277 45 103 14 210 38 253 55 90 37 117 51
156 81 24 19 70 47 101 64 78 41 89 29 53 -56 -65 -155 -61 -136 -42 -189 21
-59 21 -99 2 -220 -19 -113 -14 -108 -245 -303 -85 -73 -195 -171 -244 -219
-49 -48 -117 -103 -150 -123 -34 -20 -117 -81 -186 -136 -69 -55 -156 -119
-194 -142 -38 -23 -97 -59 -130 -79 -241 -145 -283 -162 -535 -206 -60 -11
-103 -2 -135 26 -12 10 -106 65 -211 122 -104 56 -213 118 -241 136 -27 18
-68 41 -90 50 -68 28 -98 66 -228 288 -22 37 -16 66 14 66 23 0 23 -1 10 36
-6 17 -23 35 -39 42 -29 13 -60 57 -48 69 4 3 16 -2 28 -12 17 -17 22 -17 29
-5 26 41 -3 105 -61 136 -38 19 -69 70 -69 111 0 26 5 34 25 39 38 9 31 38
-20 80 -52 42 -56 60 -18 90 32 25 26 49 -14 57 -32 6 -48 32 -58 90 -4 26
-19 51 -47 79 -37 37 -39 42 -25 53 24 17 22 22 -28 76 -33 35 -45 56 -45 78
0 19 -16 54 -45 95 -47 70 -55 89 -30 80 9 -4 17 1 21 12 25 80 37 82 95 13z
m5554 -173 c21 -14 25 -25 25 -64 0 -26 -7 -59 -15 -75 -11 -21 -12 -40 -5
-85 5 -31 13 -94 19 -140 19 -152 55 -189 170 -179 37 3 93 12 126 21 33 8 83
17 112 20 l52 7 26 -40 c14 -23 25 -53 25 -67 0 -26 2 -26 44 -22 73 9 78 -4
21 -63 -28 -28 -115 -106 -194 -173 -374 -316 -685 -543 -876 -640 -23 -12
-56 -33 -75 -47 -43 -33 -302 -180 -425 -242 -230 -115 -510 -234 -746 -318
-76 -26 -154 -55 -175 -64 -59 -24 -64 -5 -17 62 52 75 129 235 143 297 6 27
26 90 45 141 19 51 35 96 35 100 0 4 14 37 30 75 17 38 30 78 30 90 0 11 9 33
20 48 11 15 41 86 68 157 80 216 87 224 127 145 14 -28 32 -53 38 -56 20 -7
264 61 341 95 37 17 87 34 110 37 22 4 46 10 51 14 6 4 26 10 46 13 19 3 52
16 72 30 44 30 167 62 207 54 22 -5 31 -1 43 16 11 17 44 32 118 55 57 17 151
55 209 84 95 48 105 56 113 88 5 19 7 118 4 220 -5 159 -10 202 -36 309 -17
68 -28 128 -25 132 6 10 87 -14 119 -35z m-9307 -85 c3 -8 -1 -12 -9 -9 -7 2
-15 10 -17 17 -3 8 1 12 9 9 7 -2 15 -10 17 -17z m7312 -142 c0 -16 -16 -43
-68 -112 -63 -83 -78 -135 -63 -221 6 -36 22 -87 35 -113 13 -26 34 -82 46
-123 64 -217 99 -273 201 -325 39 -20 52 -22 89 -14 23 5 50 14 59 19 10 5 32
57 55 127 44 137 81 219 103 227 35 14 19 -29 -218 -571 -27 -61 -49 -119 -49
-129 0 -10 -6 -25 -13 -33 -8 -9 -24 -47 -36 -86 -12 -38 -74 -177 -137 -307
-64 -131 -124 -263 -133 -295 l-17 -57 -94 -29 c-292 -88 -832 -187 -1209
-222 -173 -15 -159 -22 -227 104 -67 123 -136 222 -223 320 -97 108 -111 129
-111 163 0 27 31 58 58 58 8 0 39 15 70 34 32 18 120 69 197 112 77 43 155 91
173 106 18 15 37 28 41 28 21 0 166 122 291 244 74 73 156 149 182 170 26 20
64 62 84 92 54 81 169 174 215 174 16 0 67 43 254 214 178 164 337 332 366
388 25 48 79 88 79 57z m-4267 -31 c14 -18 32 -49 42 -68 22 -44 176 -253 276
-374 41 -50 103 -131 136 -181 34 -49 83 -115 109 -145 26 -30 54 -66 62 -80
14 -22 29 -39 97 -110 37 -39 199 -173 280 -232 44 -32 87 -64 95 -71 8 -6 34
-24 58 -40 23 -15 77 -55 120 -90 120 -98 173 -132 226 -146 27 -6 70 -23 97
-36 27 -14 62 -25 78 -25 16 0 32 -4 35 -8 3 -5 -58 -69 -136 -143 -143 -135
-282 -304 -294 -357 -20 -87 -20 -87 -48 -90 -37 -5 -334 44 -416 67 -36 11
-112 27 -170 36 -181 29 -843 232 -912 279 -41 28 -57 76 -68 216 -10 126 -40
353 -65 497 -9 50 -15 129 -13 175 l3 83 37 -76 c21 -42 45 -79 54 -83 31 -12
75 -6 122 18 26 13 68 29 92 36 92 24 248 127 276 183 11 20 17 56 17 97 0 58
-6 78 -60 195 -82 178 -130 299 -153 391 -31 120 -24 144 23 82z m4923 -127
c-25 -48 -46 -72 -46 -52 0 5 15 47 33 93 31 79 32 81 35 46 2 -24 -5 -53 -22
-87z m-7613 20 c100 -49 198 -92 217 -96 44 -9 122 -48 140 -70 11 -14 11 -28
-5 -93 -20 -86 -43 -152 -55 -152 -26 0 -500 465 -500 491 0 17 21 9 203 -80z
m2269 -202 l-9 -74 -1 105 c0 84 2 99 10 74 7 -21 7 -56 0 -105z m5253 -4
c-10 -19 -22 -35 -26 -35 -10 0 7 48 23 67 20 25 22 3 3 -32z m-6880 -21 c66
-13 140 -31 165 -39 144 -47 474 -95 757 -111 120 -7 123 -6 179 21 40 20 60
36 69 59 9 21 15 26 18 16 3 -8 10 -114 16 -235 6 -121 18 -254 27 -295 25
-122 102 -340 144 -410 46 -76 183 -380 175 -388 -2 -3 -22 0 -44 6 -54 17
-603 295 -736 374 -245 145 -533 336 -667 442 -42 34 -102 80 -135 104 -32 23
-85 66 -118 96 l-60 54 1 73 c1 72 28 194 45 205 5 2 6 19 2 36 -6 29 -5 31
18 24 13 -4 78 -19 144 -32z m1190 -4 c3 -5 1 -10 -4 -10 -6 0 -11 5 -11 10 0
6 2 10 4 10 3 0 8 -4 11 -10z m1735 -71 c0 -6 -4 -7 -10 -4 -5 3 -10 11 -10
16 0 6 5 7 10 4 6 -3 10 -11 10 -16z m-1303 -211 c-2 -18 -4 -6 -4 27 0 33 2
48 4 33 2 -15 2 -42 0 -60z m2653 -1187 c40 -89 53 -108 93 -137 47 -34 184
-195 220 -258 12 -20 17 -39 13 -43 -22 -23 -940 -9 -1053 15 l-33 7 43 35
c65 52 102 99 141 176 20 38 53 91 75 117 22 27 59 82 82 123 l41 74 166 -2
166 -3 46 -104z"/>
<path d="M4211 10224 c0 -11 3 -14 6 -6 3 7 2 16 -1 19 -3 4 -6 -2 -5 -13z"/>
<path d="M4261 10149 c-13 -39 -15 -129 -2 -129 11 0 31 86 31 130 0 39 -15
38 -29 -1z"/>
<path d="M5192 10090 c0 -14 2 -19 5 -12 2 6 2 18 0 25 -3 6 -5 1 -5 -13z"/>
<path d="M3457 10164 c-8 -8 1 -24 14 -24 5 0 9 7 9 15 0 15 -12 20 -23 9z"/>
<path d="M6275 9660 c-3 -5 -1 -18 4 -27 9 -16 10 -14 11 10 0 28 -5 34 -15
17z"/>
<path d="M2952 9368 c2 -6 10 -14 16 -16 7 -2 10 2 6 12 -7 18 -28 22 -22 4z"/>
<path d="M5180 8560 c-23 -45 -39 -87 -37 -93 2 -7 23 28 47 76 23 48 40 91
37 94 -3 3 -24 -32 -47 -77z"/>
<path d="M6252 8574 c-7 -8 -21 -14 -31 -14 -10 0 -26 -9 -36 -20 -10 -11 -26
-20 -36 -20 -10 0 -27 -13 -39 -30 -14 -20 -30 -30 -47 -30 -18 0 -24 -4 -19
-15 3 -8 -9 -44 -26 -80 -35 -76 -51 -213 -28 -254 l12 -23 30 28 c51 50 120
154 176 269 71 144 84 181 69 193 -8 7 -16 5 -25 -4z"/>
<path d="M5208 8503 c-13 -29 -21 -67 -21 -96 1 -42 -2 -50 -24 -58 -20 -7
-22 -12 -13 -29 6 -11 13 -20 16 -20 3 0 18 28 34 62 26 54 27 63 14 72 -13
10 -12 16 10 49 28 41 31 53 16 62 -6 4 -20 -15 -32 -42z"/>
<path d="M5241 8369 c-18 -33 -31 -63 -28 -66 3 -3 20 23 37 57 41 81 33 89
-9 9z"/>
<path d="M6920 8359 c-148 -17 -299 -88 -423 -198 -86 -78 -237 -329 -237
-396 0 -22 10 -30 68 -58 64 -30 67 -34 67 -67 0 -34 1 -35 60 -50 33 -8 64
-20 68 -27 5 -8 13 -10 20 -6 6 4 164 10 352 14 231 5 375 13 450 24 81 13
140 15 223 11 125 -8 136 -1 72 42 -52 35 -167 28 -382 -22 -37 -9 -75 -13
-83 -10 -14 6 -14 8 1 25 15 17 16 24 5 60 -16 52 -47 84 -100 100 -51 15 -97
3 -123 -32 -23 -30 -15 -60 32 -119 17 -21 30 -40 30 -42 0 -6 -328 20 -410
32 -128 20 -170 31 -170 45 0 18 108 161 161 213 135 133 372 230 529 218 87
-7 232 -44 312 -79 66 -30 94 -63 167 -205 57 -112 77 -136 123 -150 51 -16
206 -24 228 -12 18 10 18 13 3 63 -18 63 -110 265 -131 290 -8 9 -21 17 -29
17 -12 0 -11 -4 1 -22 9 -12 16 -30 16 -39 0 -10 11 -30 24 -46 39 -47 97
-166 87 -176 -16 -16 -38 9 -77 92 -31 64 -55 94 -153 191 -243 242 -376 311
-621 323 -47 2 -119 0 -160 -4z m910 -550 c0 -23 -24 -41 -44 -33 -13 5 -16
21 -15 88 l1 81 29 -60 c16 -33 29 -67 29 -76z"/>
<path d="M5252 8281 c-18 -35 -32 -76 -31 -90 0 -20 9 -9 36 46 19 40 33 80
31 90 -2 12 -15 -4 -36 -46z"/>
<path d="M5296 8218 c-21 -31 -35 -115 -18 -104 15 9 45 91 40 112 -3 17 -6
16 -22 -8z"/>
<path d="M5532 8080 c-40 -11 -102 -32 -138 -47 -90 -36 -100 -53 -107 -201
-3 -64 -12 -138 -20 -163 -9 -31 -11 -53 -5 -70 5 -13 7 -71 4 -129 -4 -58 -7
-114 -7 -125 -1 -11 4 -110 10 -220 l12 -200 -37 -32 c-21 -18 -60 -46 -88
-62 -75 -42 -151 -115 -177 -169 -12 -26 -40 -62 -61 -80 -21 -19 -49 -57 -63
-85 -14 -29 -61 -92 -105 -142 -128 -143 -237 -322 -308 -505 -12 -30 -42
-109 -68 -175 -25 -66 -55 -137 -65 -157 -11 -21 -31 -79 -45 -130 -15 -51
-47 -138 -71 -193 -54 -120 -81 -220 -90 -332 -5 -69 -3 -86 12 -109 l18 -28
18 23 c10 12 28 49 40 82 12 32 26 59 30 59 15 0 10 -82 -7 -127 -22 -56 -8
-93 32 -93 33 0 105 73 171 175 107 164 344 362 499 416 109 38 195 49 487 59
158 5 332 17 387 25 131 20 159 19 228 -5 31 -12 89 -24 127 -27 41 -3 77 -12
88 -21 15 -14 19 -13 35 1 24 22 29 21 35 -3 3 -13 14 -20 29 -20 14 0 34 -11
46 -25 12 -14 31 -25 42 -25 13 0 24 -10 30 -25 6 -17 17 -25 34 -25 13 0 29
-7 37 -16 7 -8 26 -22 42 -31 16 -8 48 -32 71 -53 52 -47 156 -114 164 -105 9
9 6 120 -5 138 -4 9 -24 26 -43 39 -21 14 -39 36 -45 56 -6 23 -14 31 -25 27
-27 -9 -90 77 -90 121 0 16 -1 16 -15 -2 -14 -18 -14 -17 -15 13 0 17 4 34 9
37 11 7 60 -52 96 -115 l25 -44 0 38 c0 20 4 37 9 37 6 0 23 -24 38 -52 19
-35 34 -52 45 -50 17 2 39 -43 53 -108 10 -48 35 -94 45 -84 10 10 -5 168 -21
226 -11 42 -8 57 7 36 10 -14 39 -103 49 -150 3 -16 12 -28 21 -28 13 0 14 -7
9 -41 -6 -36 -5 -41 14 -46 16 -4 20 -11 16 -24 -6 -17 0 -19 57 -19 37 0 69
5 76 12 22 22 13 71 -38 199 -27 70 -50 134 -50 143 0 9 -16 65 -35 125 -19
60 -40 135 -46 167 -6 32 -17 71 -25 86 -8 15 -14 35 -14 46 0 37 -42 144 -74
190 -18 26 -57 90 -86 142 -71 127 -208 337 -255 389 -20 22 -44 41 -52 41
-44 0 -125 102 -137 173 -6 29 -22 54 -71 103 -52 52 -85 74 -175 116 l-110
53 2 415 c1 455 -5 541 -43 582 -13 14 -35 38 -49 53 -34 38 -142 87 -199 92
-26 1 -78 -6 -119 -17z m194 -1006 c8 -44 -9 -66 -26 -34 -12 23 -6 70 10 70
5 0 12 -16 16 -36z m476 -629 c30 -8 80 -25 109 -38 30 -14 65 -28 79 -32 14
-4 35 -15 48 -23 29 -19 72 -92 72 -123 0 -27 -92 -119 -137 -137 -135 -53
-215 -82 -225 -82 -32 0 -90 -23 -118 -46 -22 -19 -39 -25 -67 -23 -29 2 -37
0 -34 -11 2 -8 6 -28 9 -44 4 -26 3 -27 -18 -16 -12 6 -31 9 -42 7 -11 -3 -28
-1 -38 5 -26 17 -45 4 -69 -46 -11 -25 -25 -46 -30 -46 -5 0 -11 18 -15 40 -5
30 -11 40 -25 40 -25 0 -36 -16 -52 -70 l-13 -45 -6 47 c-3 26 -8 48 -10 50
-3 2 -26 14 -52 26 -37 19 -50 22 -67 13 -15 -8 -27 -9 -40 -1 -11 5 -35 10
-53 10 -19 0 -39 5 -46 12 -8 8 -15 8 -27 -2 -10 -8 -19 -9 -27 -2 -7 5 -55
12 -107 14 -106 5 -121 15 -121 77 0 20 -4 41 -8 47 -9 16 -67 30 -176 44 -91
11 -156 32 -156 48 0 12 93 166 132 218 18 24 49 51 68 60 51 25 155 21 270
-9 52 -14 131 -35 175 -47 96 -25 333 -46 349 -30 5 5 19 10 31 10 11 0 52 19
90 41 116 69 144 79 220 79 39 0 96 -7 127 -15z m-447 -891 c5 -52 4 -75 -3
-70 -15 9 -34 134 -26 170 l7 31 8 -28 c4 -15 11 -61 14 -103z m-620 37 c-4
-17 -11 -29 -15 -26 -5 3 -7 12 -5 20 3 8 7 22 10 31 9 28 17 7 10 -25z m835
-2 c14 -50 10 -84 -10 -84 -21 0 -34 45 -26 88 9 48 23 47 36 -4z m-700 12 c0
-11 -4 -22 -9 -25 -11 -7 -23 22 -15 35 9 16 24 10 24 -10z m350 -55 c-7 -7
-10 1 -9 25 0 32 1 33 10 10 6 -16 6 -28 -1 -35z m252 -28 c28 5 21 -17 -8
-24 -27 -7 -44 7 -44 35 0 11 3 11 17 0 9 -8 24 -13 35 -11z m808 -90 c0 -16
-3 -19 -11 -11 -6 6 -8 16 -5 22 11 17 16 13 16 -11z m90 -382 c0 -3 -4 -8
-10 -11 -5 -3 -10 -1 -10 4 0 6 5 11 10 11 6 0 10 -2 10 -4z m-2530 -96 c0
-11 -7 -20 -15 -20 -15 0 -21 21 -8 33 12 13 23 7 23 -13z"/>
<path d="M4940 6324 c-92 -40 -96 -99 -10 -145 15 -7 80 -15 160 -19 120 -6
144 -11 213 -39 43 -17 92 -31 110 -31 18 0 38 -5 43 -10 7 -7 16 -4 28 9 17
19 16 21 -31 55 -26 20 -111 67 -188 106 -181 90 -251 106 -325 74z"/>
<path d="M6085 6321 c-141 -51 -285 -143 -285 -181 0 -27 39 -50 85 -50 103 0
347 61 386 96 22 19 25 58 7 73 -57 47 -79 62 -102 71 -34 13 -31 13 -91 -9z"/>
<path d="M6925 7996 c-27 -12 -67 -42 -88 -65 -45 -50 -107 -173 -107 -213 0
-36 49 -68 102 -68 33 0 38 3 44 28 11 51 27 97 45 133 30 60 145 101 234 85
45 -9 86 -62 116 -154 28 -86 35 -93 61 -62 32 40 21 115 -27 185 -41 60 -115
120 -173 141 -60 21 -150 17 -207 -10z"/>
<path d="M8085 8000 c-4 -6 4 -28 17 -48 30 -45 48 -96 48 -131 -1 -20 -9 -11
-38 44 -33 64 -37 67 -40 42 -2 -17 3 -36 12 -46 9 -10 16 -23 16 -30 0 -6 15
-40 32 -74 30 -57 33 -60 36 -33 l4 28 24 -23 c13 -12 24 -30 24 -40 0 -22 19
-73 25 -67 11 11 -29 145 -74 248 -54 121 -73 150 -86 130z"/>
<path d="M7931 7920 c-1 -18 16 -46 23 -40 2 3 -2 16 -9 30 -8 15 -14 19 -14
10z"/>
<path d="M8020 7875 c0 -9 7 -31 15 -51 13 -31 13 -35 0 -39 -46 -15 -50 -19
-20 -23 40 -5 53 -18 61 -58 7 -36 24 -47 24 -16 0 38 -61 202 -75 202 -3 0
-5 -7 -5 -15z"/>
<path d="M4155 7846 c-120 -37 -213 -163 -215 -287 l0 -46 -86 -7 c-159 -12
-229 -45 -222 -104 3 -25 7 -28 63 -35 71 -9 111 0 225 47 142 59 265 79 480
80 151 1 198 -2 257 -18 81 -21 200 -19 242 4 34 18 18 24 -124 51 -152 28
-166 35 -188 97 -21 62 -85 144 -135 176 -85 54 -206 71 -297 42z m290 -149
c55 -55 60 -117 9 -117 -19 0 -39 13 -68 44 -48 52 -111 75 -148 54 -13 -7
-27 -13 -33 -13 -6 0 -10 -28 -10 -63 0 -71 -9 -82 -67 -82 -33 0 -38 3 -38
23 1 32 42 107 70 129 30 21 160 57 214 57 30 1 45 -6 71 -32z"/>
<path d="M7970 7821 c0 -12 5 -21 10 -21 6 0 10 6 10 14 0 8 -4 18 -10 21 -5
3 -10 -3 -10 -14z"/>
<path d="M5182 7510 c-20 -32 -28 -60 -18 -60 10 0 47 71 43 83 -2 7 -13 -3
-25 -23z"/>
<path d="M6150 7524 c0 -19 51 -103 63 -104 14 0 7 20 -24 70 -33 54 -39 59
-39 34z"/>
<path d="M6220 7515 c0 -20 126 -265 147 -285 14 -13 14 -12 8 10 -4 14 -18
40 -32 57 -13 18 -30 50 -37 71 -17 46 -74 162 -81 162 -3 0 -5 -7 -5 -15z"/>
<path d="M5126 7398 c-7 -13 -42 -72 -76 -133 -35 -60 -87 -145 -117 -189 -51
-74 -62 -104 -28 -76 28 23 28 2 1 -45 -15 -25 -33 -45 -41 -45 -9 0 -12 6 -9
15 4 8 1 15 -5 15 -16 0 -14 -55 3 -69 19 -16 38 -6 61 34 11 19 66 110 122
202 103 170 160 283 143 283 -5 0 -12 -4 -15 -10 -13 -21 -24 -9 -15 15 12 32
-4 34 -24 3z"/>
<path d="M6230 7389 c0 -8 7 -24 15 -35 11 -15 14 -16 15 -3 0 8 -7 24 -15 35
-11 15 -14 16 -15 3z"/>
<path d="M6438 7108 c12 -12 24 -19 28 -15 10 10 -16 37 -34 37 -13 0 -12 -4
6 -22z"/>
<path d="M8857 6694 c-3 -4 4 -34 17 -68 52 -138 42 -203 -59 -386 -76 -139
-82 -158 -61 -199 20 -37 49 -57 99 -65 30 -6 47 -2 88 20 61 34 89 77 128
204 25 79 28 100 21 148 -22 152 -54 225 -133 300 -51 47 -83 62 -100 46z"/>
<path d="M4336 6483 c-24 -38 -71 -118 -104 -180 -33 -61 -72 -129 -85 -150
-14 -22 -32 -61 -41 -88 -10 -27 -32 -76 -50 -109 -19 -34 -39 -79 -46 -101
-7 -22 -26 -67 -42 -100 -31 -67 -36 -105 -13 -105 21 0 19 -12 -16 -91 -37
-85 -33 -113 6 -44 15 28 46 82 69 120 22 39 46 86 52 105 6 19 48 114 94 210
151 320 202 455 145 385 -36 -43 -31 -23 9 39 43 68 66 112 77 148 13 48 -9
32 -55 -39z m-216 -507 c0 -8 -4 -18 -10 -21 -5 -3 -10 3 -10 14 0 12 5 21 10
21 6 0 10 -6 10 -14z"/>
<path d="M3485 6500 c3 -5 8 -10 11 -10 2 0 4 5 4 10 0 6 -5 10 -11 10 -5 0
-7 -4 -4 -10z"/>
<path d="M7250 6432 c0 -11 7 -39 15 -63 9 -24 29 -96 45 -159 16 -63 43 -153
59 -200 17 -47 30 -96 30 -110 0 -31 -1 -30 -60 135 -23 66 -55 146 -71 177
-15 32 -28 66 -28 77 0 11 -6 32 -14 48 -7 15 -20 41 -27 57 -17 35 -37 44
-45 22 -4 -9 27 -106 69 -219 41 -111 78 -213 82 -227 4 -14 18 -38 30 -55 12
-16 34 -59 50 -95 41 -96 96 -200 106 -200 13 0 11 19 -6 95 -9 37 -14 72 -12
79 6 18 46 -54 67 -124 22 -72 63 -140 85 -140 18 0 18 3 0 64 -8 27 -15 60
-15 74 0 21 2 22 15 12 8 -7 15 -22 15 -34 1 -50 56 -133 76 -114 7 7 -82 336
-106 392 -12 29 -28 50 -40 53 -12 3 -27 21 -35 39 -13 32 -43 50 -31 19 3 -8
1 -15 -4 -15 -12 0 -32 38 -26 49 10 15 -63 206 -85 224 -34 27 -41 21 -37
-33 1 -28 0 -50 -3 -50 -4 0 -16 37 -28 83 -12 45 -27 97 -34 116 -14 39 -37
53 -37 23z m131 -299 c-9 -15 -10 -12 -10 17 0 29 1 32 10 18 7 -12 7 -24 0
-35z m54 -146 c8 -44 -7 -50 -23 -9 -19 49 -23 72 -16 83 9 15 30 -24 39 -74z
m35 -139 c0 -18 -2 -20 -9 -8 -6 8 -7 18 -5 22 9 14 14 9 14 -14z"/>
<path d="M4213 5987 c-6 -12 -27 -53 -47 -91 -39 -73 -51 -151 -20 -125 42 35
116 239 87 239 -5 0 -13 -10 -20 -23z"/>
<path d="M4056 5652 c-25 -49 -63 -135 -86 -192 -22 -57 -45 -109 -50 -115
-14 -16 -92 -304 -87 -319 6 -16 86 157 152 329 32 83 70 175 85 206 30 59 62
164 52 173 -14 14 -25 0 -66 -82z"/>
<path d="M7420 5176 c-7 -9 -15 -37 -18 -63 l-5 -47 32 27 c43 36 54 27 46
-34 -7 -53 9 -70 21 -22 15 57 8 83 -28 119 -31 31 -36 33 -48 20z"/>
<path d="M5715 5173 c-16 -2 -70 -10 -120 -18 -159 -26 -229 -34 -401 -49 -93
-9 -194 -23 -224 -32 -67 -19 -229 -105 -256 -135 -10 -12 -46 -42 -79 -67
-33 -25 -98 -79 -145 -120 -56 -50 -111 -88 -163 -112 -44 -21 -75 -40 -71
-43 5 -2 34 -12 65 -21 42 -12 78 -33 133 -79 87 -72 123 -85 381 -135 132
-25 157 -27 425 -27 348 0 694 24 863 59 65 14 171 30 235 36 258 25 402 69
451 138 42 59 51 93 35 131 -8 18 -14 43 -14 56 0 24 -38 53 -130 100 -30 15
-76 43 -103 61 -26 19 -53 34 -61 34 -7 0 -24 8 -37 19 -36 28 -235 125 -317
155 -131 47 -323 67 -467 49z m252 -171 c31 -17 58 -15 103 8 50 25 85 25 162
-1 72 -24 278 -137 327 -178 49 -43 34 -55 -53 -47 -39 4 -168 16 -286 27
-118 11 -231 24 -250 29 -50 14 -99 12 -177 -7 -54 -13 -128 -16 -368 -18
l-301 -2 -46 -27 c-33 -19 -69 -29 -134 -36 -196 -23 -247 -30 -258 -40 -13
-10 -127 -42 -132 -37 -2 2 54 46 124 100 135 102 224 157 257 157 11 0 25 10
30 22 21 47 90 49 142 4 l28 -24 45 32 45 31 176 3 c147 3 181 1 207 -12 28
-14 36 -14 69 -2 21 8 62 23 91 33 46 18 59 18 115 8 34 -6 72 -17 84 -23z
m471 -438 c56 -4 102 -10 102 -14 0 -11 -43 -17 -290 -41 -234 -22 -677 -30
-719 -12 l-24 9 28 22 c47 37 89 42 300 36 110 -3 245 -1 300 4 55 6 123 8
150 6 28 -2 96 -6 153 -10z m-995 -17 c20 -9 37 -21 37 -26 0 -16 -47 -20
-320 -25 -270 -6 -317 -1 -245 29 101 43 444 57 528 22z m-640 -18 c39 -11 50
-29 17 -29 -10 0 -43 5 -72 12 -46 10 -50 12 -28 19 36 10 41 10 83 -2z"/>
<path d="M7530 5051 c-5 -11 -10 -24 -10 -30 0 -17 27 -13 34 5 16 41 -4 62
-24 25z"/>
<path d="M7520 4966 c-12 -34 -12 -36 0 -36 16 0 33 41 21 53 -7 7 -13 2 -21
-17z"/>
<path d="M4250 4190 c0 -42 57 -149 125 -233 53 -66 69 -107 42 -107 -8 0 -25
-9 -37 -20 -17 -15 -32 -19 -52 -15 -24 6 -28 4 -28 -17 0 -31 19 -197 25
-225 8 -34 22 -28 32 14 13 55 29 51 37 -9 14 -111 44 -153 57 -77 l5 34 8
-40 c4 -22 13 -51 21 -65 l14 -25 15 35 c12 28 15 30 16 13 0 -13 10 -27 23
-34 12 -6 32 -21 44 -32 16 -15 30 -18 53 -14 26 6 32 3 40 -17 18 -49 40 -40
58 24 6 19 11 28 11 19 1 -16 31 -49 44 -49 4 0 7 25 7 55 0 85 15 71 45 -42
4 -13 11 -23 16 -23 5 0 9 10 10 23 0 12 8 45 18 72 l18 50 18 -35 c20 -40 44
-70 57 -70 4 0 8 17 8 37 l0 36 25 -23 c20 -19 27 -21 40 -10 13 11 19 10 36
-6 17 -16 22 -16 29 -4 6 8 10 26 10 38 0 36 22 22 46 -28 l22 -44 15 36 c8
19 21 39 28 43 8 5 10 4 5 -3 -5 -8 3 -12 24 -12 27 0 33 -6 50 -45 20 -46 20
-46 45 -29 22 15 25 23 26 83 0 36 4 75 9 86 7 19 8 18 13 -5 3 -14 8 -46 11
-73 6 -52 32 -111 45 -102 16 9 41 104 41 157 0 38 3 49 10 38 5 -8 10 -29 10
-46 0 -58 12 -93 32 -100 27 -8 38 11 38 69 0 26 4 47 9 47 4 0 16 -30 25 -67
9 -37 21 -72 26 -77 6 -6 19 11 35 47 28 60 41 74 31 32 -5 -18 -2 -27 9 -31
24 -10 42 13 55 66 7 28 16 50 20 50 5 0 16 -21 25 -47 39 -111 45 -114 68
-33 15 52 33 62 42 22 3 -17 22 -43 45 -61 38 -30 41 -31 69 -17 32 17 41 13
41 -21 0 -30 25 -40 49 -19 10 9 25 16 33 16 21 0 36 20 40 54 l3 30 28 -43
c27 -40 30 -42 46 -27 16 15 19 14 30 -10 l12 -27 28 27 c22 21 31 25 37 14 6
-9 10 -6 14 12 l6 25 17 -32 c24 -46 36 -49 49 -12 l11 32 15 -29 c20 -40 43
-65 53 -58 5 3 9 30 9 60 0 30 2 54 4 54 3 0 18 -14 35 -31 44 -44 66 -36 63
21 l-3 45 21 -24 c11 -13 20 -30 20 -38 0 -20 29 -73 40 -73 6 0 10 14 10 30
0 37 6 37 42 3 33 -31 33 -31 17 86 -6 45 -9 85 -6 88 3 3 20 -23 37 -57 34
-67 53 -73 58 -17 3 36 3 37 28 21 19 -13 27 -14 39 -4 8 7 15 21 15 31 0 11
9 28 21 40 18 18 19 25 10 46 -6 13 -11 43 -11 66 0 38 -6 48 -48 90 l-49 48
-36 -21 c-19 -11 -38 -28 -41 -37 -6 -14 -8 -14 -24 1 -10 9 -29 16 -43 16
-13 0 -48 12 -78 25 -41 19 -56 23 -62 13 -4 -6 -5 -16 -3 -20 10 -16 -9 -8
-22 10 -25 32 -15 50 47 87 76 47 119 91 180 184 52 78 61 106 32 97 -170 -51
-330 -74 -618 -87 -115 -5 -239 -13 -275 -18 -36 -5 -189 -14 -340 -20 -151
-6 -378 -17 -505 -24 -126 -6 -304 -12 -395 -12 -248 1 -324 27 -412 142 -52
69 -88 83 -88 33z m1580 -467 c0 -48 -3 -64 -10 -53 -13 20 -13 120 0 120 6 0
10 -29 10 -67z m377 -85 c-3 -8 -6 -5 -6 6 -1 11 2 17 5 13 3 -3 4 -12 1 -19z
m403 -74 c0 -8 -4 -12 -10 -9 -5 3 -10 10 -10 16 0 5 5 9 10 9 6 0 10 -7 10
-16z m85 -14 c8 -36 -5 -63 -16 -34 -11 27 -11 64 0 64 5 0 12 -13 16 -30z
m-1375 -20 c0 -11 -4 -20 -10 -20 -5 0 -10 9 -10 20 0 11 5 20 10 20 6 0 10
-9 10 -20z m-65 -10 c-3 -5 -10 -10 -16 -10 -5 0 -9 5 -9 10 0 6 7 10 16 10 8
0 12 -4 9 -10z m-95 -10 c0 -5 -2 -10 -4 -10 -3 0 -8 5 -11 10 -3 6 -1 10 4
10 6 0 11 -4 11 -10z m870 -51 c0 -11 -4 -17 -10 -14 -5 3 -10 15 -10 26 0 11
5 17 10 14 6 -3 10 -15 10 -26z m75 1 c-3 -5 -10 -10 -16 -10 -5 0 -9 5 -9 10
0 6 7 10 16 10 8 0 12 -4 9 -10z"/>
<path d="M7160 3686 c0 -8 5 -18 10 -21 6 -3 10 1 10 9 0 8 -4 18 -10 21 -5 3
-10 -1 -10 -9z"/>
<path d="M7240 3658 c0 -7 5 -20 10 -28 8 -12 10 -9 10 13 0 15 -4 27 -10 27
-5 0 -10 -6 -10 -12z"/>
<path d="M3991 2784 c0 -11 3 -14 6 -6 3 7 2 16 -1 19 -3 4 -6 -2 -5 -13z"/>
<path d="M4230 2394 c0 -8 5 -12 10 -9 6 4 8 11 5 16 -9 14 -15 11 -15 -7z"/>
<path d="M6616 2363 c-13 -27 -45 -100 -71 -163 -26 -63 -74 -170 -108 -237
-33 -68 -58 -126 -54 -130 4 -3 23 9 42 27 19 18 37 32 39 29 3 -2 -11 -35
-30 -73 -45 -90 -45 -118 -2 -79 17 15 20 15 28 3 5 -8 7 -33 4 -55 l-6 -40
27 30 c65 74 147 191 176 252 34 72 36 98 20 218 -15 102 -15 106 -6 193 8 69
7 72 -13 72 -16 0 -28 -13 -46 -47z m-116 -577 c0 -15 -24 -28 -34 -19 -7 7
13 33 25 33 5 0 9 -6 9 -14z"/>
<path d="M8942 1738 c-16 -16 -15 -28 3 -28 8 0 15 9 15 20 0 23 -2 24 -18 8z"/>
<path d="M775 2150 c-10 -17 12 -37 25 -24 8 8 6 15 -4 23 -10 9 -16 9 -21 1z"/>
</g>
</svg>
